<?xml version="1.0" standalone="no"?>
<!DOCTYPE svg PUBLIC "-//W3C//DTD SVG 1.1//EN" "http://www.w3.org/Graphics/SVG/1.1/DTD/svg11.dtd" >
<svg>
<defs>
<font id="GF1" horiz-adv-x="250" >
<font-face units-per-em="100" ascent="80" descent="-20" />
<glyph unicode=" " horiz-adv-x="36" d="" />
<glyph unicode="!" horiz-adv-x="20.154166731212023" d="M3.000000000020854 55.840708612699999 L17.154166731220812 55.840708612699984 L17.154166731220812 46.041670106499964 L14.704407104620827 17.188945615999955 L5.177564112520827 17.188945615999955 L3.000000000020805 46.041670106499964 L3.000000000020805 55.840708612699984 zM4.905368598420850 1.401605800400000 C3.544391028120799 2.762583370699986 3.000000000020805 4.667951969100045 3.000000000020805 6.573320567499991 C3.000000000020805 8.478689165999981 3.544391028120799 10.111862250299964 4.905368598420864 11.472839820699960 C6.266346168720816 12.833817391000025 7.899519253120843 13.378208419100019 9.804887851520903 13.378208419100019 C11.710256450020893 13.378208419100019 13.343429534320876 12.833817391000025 14.704407104620827 11.472839820699960 C16.065384674920892 10.111862250299964 16.609775703120818 8.478689165999981 16.609775703120818 6.573320567499991 C16.609775703120818 4.667951969100045 16.065384674920892 3.034778884700017 14.704407104620827 1.673801314399952 C13.343429534320876 0.312823744100001 11.710256450020893 -0.231567283999993 9.804887851520903 -0.231567283999993 C7.899519253120843 -0.231567283999993 6.266346168720816 0.312823744100001 4.905368598420864 1.401605800400034 z" />
<glyph unicode="&#x22;" horiz-adv-x="28.601796613913617" d="M-47.963924977751432 32.383602568699999 L-47.963924977751446 32.383602568699985 L-47.963924977751446 32.383602568699985 L-47.963924977751446 32.383602568699985 zM10.897013274748570 47.679520499399999 L3.000000000048598 47.679520499399985 L3.000000000048598 64.018168653999965 L10.897013274748527 64.018168653999965 L10.897013274748527 47.679520499399985 zM25.601796613948576 47.679520499399999 L17.704783339148602 47.679520499399985 L17.704783339148602 64.018168653999965 L25.601796613948576 64.018168653999965 L25.601796613948576 47.679520499399985 z" />
<glyph unicode="#" horiz-adv-x="57.540858245136207" d="M6.440858245136202 35.383602568699999 L6.440858245136180 35.383602568699985 L6.440858245136180 35.383602568699985 L6.440858245136180 35.383602568699985 zM6.440858245136202 35.383602568699999 L6.440858245136180 35.383602568699985 L6.440858245136180 35.383602568699985 L6.440858245136180 35.383602568699985 zM51.932334351036204 32.156131292700003 L44.320637896436239 32.156131292700024 L42.689560084736200 22.369664422500023 L51.660488049136148 22.369664422500023 L49.485717633536211 11.767658646400037 L40.786635971136235 11.767658646400037 L38.883711857436225 0.078267662599956 L27.194320873536210 0.078267662599956 L29.097244987236220 11.767658646400037 L22.029241136536168 11.767658646400037 L20.126317022836158 0.078267662599956 L8.436926039036191 0.078267662599956 L10.339850152636156 11.767658646400037 L3.000000000036177 11.767658646400037 L5.174770415636228 22.369664422500023 L12.242774266336166 22.369664422500023 L13.873852078036204 32.156131292700024 L5.718463019536241 32.156131292700024 L7.893233435136178 42.758137068800011 L15.776776191636170 42.758137068800011 L17.951546607236221 55.263066958500019 L29.369091289136147 55.263066958500019 L27.194320873536210 42.758137068800011 L34.262324724336196 42.758137068800011 L36.437095139936247 54.991220656499991 L48.126486123736214 54.991220656499991 L45.951715708136163 42.486290766800039 L54.107104766636240 42.486290766800039 L51.932334351036189 32.139318547800031 L51.932334351036189 32.156131292700024 zM32.631246912536206 32.156131292700003 L25.563243061836172 32.156131292700024 L23.932165250136247 22.369664422500023 L31.000169100836185 22.369664422500023 C31.543861704736198 26.447358951799970 32.359400610636186 29.709514575200046 32.631246912536227 32.156131292700024 z" />
<glyph unicode="$" horiz-adv-x="56" d="M25.744295302000001 0.055414649200000 L25.744295301999955 0.055414649199975 L25.744295301999955 0.055414649199975 L25.744295301999955 0.055414649199975 zM28.580041401900001 55.500693192699998 C32.901875775300027 54.420234599299988 37.223710148800023 52.529432060899978 41.275429873899952 49.558170929200003 L34.792678313699980 40.104158237299998 C32.631761127000004 41.454731478999975 30.470843940300028 42.805304720699951 28.580041401899962 43.615648665699950 L28.580041401899962 55.500693192699998 zM13.993850391600001 1.477763524800000 C8.591557424800044 2.828336766500001 3.459379106300048 5.529483249899954 -1.402684563799994 9.851317623300019 L5.890410941399978 18.765101018499990 C8.861672073099953 16.063954535100038 11.562818556500019 14.443266645100039 13.993850391599949 13.092693403399949 L13.993850391599949 1.477763524800025 zM42.355888467200003 17.144413128499998 C42.355888467199975 12.552464106699972 40.735200577199976 8.770859029999997 37.763939445399956 5.799597898199977 C34.792678313699980 2.828336766500001 30.740958588600051 0.937534228100048 25.608780270199986 0.397304931399958 L25.608780270199986 -5.004988035300016 L16.965111523300038 -5.004988035300016 L16.965111523300038 0.667419579800026 L16.965111523300038 12.012234809999995 L16.965111523300038 23.897279336999986 C11.562818556500019 25.247852578699963 7.511098831399977 27.138655116999985 4.809952348000024 29.569686952100028 C2.378920513000025 32.000718787100027 1.028347271300049 35.242094567199956 1.028347271300049 39.834043588999975 C1.028347271300049 44.425992610799995 2.649035161300048 47.937483039200004 5.350181644700001 50.908744170899979 C8.321442776500021 53.880005302600011 12.373162501500019 55.770807841000021 17.235226171699992 56.311037137699998 L17.235226171699992 60.092642214400030 L25.338665621800033 60.092642214400030 L25.338665621800033 56.040922489299987 L25.338665621800033 44.966221907400040 L25.338665621800033 33.621406677199957 C31.011073237000005 32.000718787100027 35.332907610399957 30.109916248800005 38.034054093800023 27.678884413699961 C40.735200577199976 25.247852578699963 42.355888467199975 21.736362150199966 42.355888467199975 17.144413128499991 zM17.235226171699999 45.236336555800001 C14.804194336599949 44.425992610799995 13.723735743199995 43.075419369100018 13.723735743199995 40.914502182299998 C13.723735743199995 38.753584995600022 14.804194336599949 37.132897105600023 17.235226171699992 36.052438512199956 L17.235226171699992 45.236336555799994 zM29.660499995300000 16.334069183499999 C29.660499995300029 17.414527776800014 29.390385346899961 18.224871721800014 28.850156050199985 19.035215666900058 C28.309926753600053 19.845559611899944 27.229468160199986 20.655903556900057 25.608780270199986 21.196132853600034 L25.608780270199986 11.472005513399949 C28.039812105199985 12.282349458399949 29.390385346899961 13.903037348399948 29.660499995300029 16.334069183499992 z" />
<glyph unicode="%" horiz-adv-x="61.046022909881543" d="M229.681297634818350 -918.416397431299970 L229.581297634818299 -918.416397431300084 L229.681297634818435 -918.416397431300084 L229.681297634818435 -918.416397431300084 zM26.568226385418345 43.257535744400002 C26.568226385418399 40.116633979100015 25.450569735318396 37.468647454199981 23.215256435118391 35.307844597400049 C20.979943135018317 33.152773313099942 18.165741005818319 32.069506098399984 14.784113192718365 32.069506098399984 C11.402485379618298 32.069506098399984 8.594014823018398 33.158504885700040 6.352969950218295 35.342234032799979 C4.117656650118334 37.525963179900032 3.000000000018332 40.173949704700021 3.000000000018332 43.291925179800046 C3.000000000018332 46.409900654899957 4.117656650118334 49.057887179700003 6.352969950218295 51.241616326799999 C8.588283250418300 53.425345473899995 11.396753807018314 54.514344261199994 14.784113192718365 54.514344261199994 C18.165741005818319 54.514344261199994 20.974211562418333 53.419613901399998 23.215256435118391 51.241616326799999 C25.450569735318396 49.057887179700003 26.568226385418399 46.398437509800033 26.568226385418399 43.257535744400002 zM57.249334323418346 55.878458531600003 L17.225763105218363 0.035747035199961 L3.487183668018389 0.035747035199961 L43.585265329518307 55.878458531600018 L57.249334323418367 55.878458531600018 zM12.388315860718343 40.420407324999999 C13.001594125118373 39.703960754399986 13.786819566518290 39.342871682800023 14.743992184718337 39.342871682800023 C15.701164803018315 39.342871682800023 16.503584962018323 39.703960754399986 17.139789516718366 40.420407325000042 C17.781725643918350 41.136853895500053 18.096962135018344 42.082563368699994 18.096962135018344 43.257535744400002 C18.096962135018344 44.432508120200055 17.775994071418296 45.401143883599957 17.139789516718366 46.174906179800018 C16.503584962018323 46.948668475999966 15.712627948118353 47.332683837800005 14.784113192718365 47.332683837800005 C13.849866864718393 47.332683837800005 13.064641423318363 46.948668475999966 12.428436868718364 46.174906179800018 C11.792232314018321 45.401143883599957 11.471264250418386 44.432508120200055 11.471264250418386 43.257535744400002 C11.471264250418386 42.082563368699994 11.775037596318299 41.136853895500053 12.388315860718336 40.420407325000042 zM58.046022909918349 10.581840553999999 C58.046022909918321 7.440938788599965 56.928366259818318 4.792952263799975 54.693052959618313 2.632149406899998 C52.457739659418309 0.477078122700050 49.643537530218310 -0.606189092000022 46.261909717218401 -0.606189092000022 C42.880281904118334 -0.606189092000022 40.071811347518320 0.488541267799974 37.830766474718331 2.672270414900026 C35.595453174518326 4.855999561999965 34.477796524518368 7.503986086799955 34.477796524518368 10.621961561899980 C34.477796524518368 13.739937037000004 35.595453174518326 16.387923561799994 37.830766474718331 18.571652708900046 C40.066079774918336 20.755381855999985 42.874550331518350 21.844380643300042 46.261909717218401 21.844380643300042 C49.643537530218310 21.844380643300042 52.452008086918369 20.749650283500046 54.693052959618313 18.571652708900046 C56.928366259818318 16.387923561799994 58.046022909918321 13.722742319299982 58.046022909918321 10.581840553999996 zM43.866112385218344 7.744712134500000 C44.479390649618296 7.028265563900050 45.264616090918395 6.667176492400017 46.221788709218373 6.667176492400017 C47.178961327518351 6.667176492400017 47.981381486518359 7.028265563900050 48.617586041218289 7.744712134499991 C49.259522168418385 8.461158705100047 49.574758659518380 9.406868178200057 49.574758659518380 10.581840553999996 C49.574758659518380 11.756812929700004 49.253790595918332 12.725448693100020 48.617586041218289 13.499210989299968 C47.981381486518359 14.272973285500029 47.190424472618389 14.656988647399999 46.261909717218401 14.656988647399999 C45.327663389118385 14.656988647399999 44.542437947818286 14.267241712999976 43.906233393118356 13.499210989299968 C43.264297265918373 12.725448693100020 42.949060774918308 11.756812929700004 42.949060774918308 10.581840553999996 C42.949060774918308 9.406868178200057 43.252834120818335 8.466890277599987 43.866112385218372 7.744712134499991 z" />
<glyph unicode="&#x26;" horiz-adv-x="56.472120272383336" d="M36.065504217979253 3.678562545100000 C32.216734172979159 1.280736409299948 27.911011013679172 0.065335342500020 23.134202169479295 0.065335342500020 C17.259763679679281 0.065335342500020 12.435846267079341 1.568098677100011 8.662449931579204 4.573625346299991 C4.889053596179338 7.574441158600052 2.999999999979309 11.682308330299975 2.999999999979309 16.892516004499953 C2.999999999979309 22.032060826000020 6.019659239779230 26.658122251000009 12.058977719179211 30.770700279500034 L18.819057296479286 23.139112185299950 C16.209242602579252 21.042780887799950 14.880780971379181 18.828678169100044 14.880780971379181 16.492093172400018 C14.880780971379181 14.636015574199973 15.653361494479213 13.090854527899978 17.193811683879176 11.870742604200018 C18.734261873179321 10.650630680499944 20.726954320079358 10.038219290300049 23.171889024279153 10.038219290300049 C24.943171199279277 10.038219290300049 26.818092224879365 10.664763251099998 28.787230387479212 11.894296888499980 L36.065504217979196 3.678562545100021 zM53.472120272379271 5.892665263800000 L45.576724194679173 -1.602307981799981 L39.217067449479146 4.903385325700015 L13.929187887979197 33.441756112500002 C12.586593686279230 35.156508005299997 11.564337750179220 36.701669051499948 10.895396077679379 38.063106680599958 C10.099261270379202 39.683641436399967 9.698838438279381 41.582116746300017 9.698838438279381 43.763243467000052 C9.698838438279381 48.280955184499987 11.333505764579286 51.734013254300010 14.602840417279367 54.127128533199993 C17.867464213179346 56.520243812200022 21.735077685579199 57.716801451600020 26.200969977779323 57.716801451600020 C30.666862269879175 57.716801451600020 34.477945460179171 56.557930666999994 37.638930405379142 54.244899954400012 C40.799915350579340 51.936580098799993 42.382763251579263 48.704932300899998 42.382763251579263 44.559378274400046 C42.382763251579263 39.349170600199955 38.581101774979288 34.515831473899993 30.982489678779302 30.049939181699983 C33.959751206879218 26.328362271599985 53.467409415579368 5.892665263800041 53.472120272379243 5.892665263800041 zM30.822320545879251 43.603074334200002 C30.822320545879165 45.148235380400024 30.341813147379298 46.316527878800002 29.385509207179211 47.112662686199997 C28.429205266979352 47.908797493500003 27.364551619279155 48.309220325599995 26.196259120879176 48.309220325599995 C25.027966622479198 48.309220325599995 23.977445545379169 47.899375779799982 23.049406746279146 47.074975831400025 C22.121367947179351 46.250575882899966 21.654993119179380 45.134102809900014 21.654993119179380 43.725556612300011 C21.654993119179380 42.317010414599963 22.719646766879350 40.281920256200010 24.844243205479188 37.624996993700051 C28.829628099079173 39.749593432300003 30.822320545879165 41.742285879099995 30.822320545879165 43.603074334199960 zM39.127561169379248 21.071046028900000 L44.724059105179322 26.182325709300017 L52.181345495979258 17.905350226900055 L46.575425846479220 12.681009982100022 L39.127561169379305 21.071046028900014 z" />
<glyph unicode="'" horiz-adv-x="20.065609272826201" d="M166.377555731526115 -249.316397431300004 L166.377555731526115 -249.316397431299947 L166.377555731526115 -249.316397431299947 L166.377555731526115 -249.316397431299947 zM6.576630552926119 45.057137035399997 C4.834644687726097 46.224638200400022 3.945119990626097 47.855433478400016 3.945119990626097 49.949522869399971 C3.945119990626097 52.043612260500026 4.575199984426092 53.692939303099990 5.816828207426113 54.916035761600028 C7.058456430526064 56.120600455499982 8.633656414926065 56.732148684799995 10.505364631726081 56.732148684799995 C12.377072848526097 56.732148684799995 13.952272833026143 56.139132220100009 15.193901056026164 54.990162819700004 C16.435529279026071 53.822661654700028 17.065609272826066 52.321588728400002 17.065609272826066 50.468412276100025 C17.065609272826066 48.615235823799992 16.472592808126080 46.780591135999998 15.323623407726075 44.983009977299957 L9.523181112026066 36.569588884000041 L3.000000000026091 36.569588884000041 L6.576630552926133 45.057137035400046 z" />
<glyph unicode="(" horiz-adv-x="29.210457610669522" d="M-19.040908702581785 -188.516397431299993 L-19.040908702581831 -188.516397431299993 L-19.040908702581831 -188.516397431299993 L-19.040908702581831 -188.516397431299993 zM18.138321718618215 43.467512406700003 C15.930138647818168 36.916569296800049 14.826047112418266 30.782727433499986 14.826047112418266 25.090522184299971 C14.826047112418266 19.398316935200000 15.930138647818168 13.239939704499989 18.138321718618201 6.688996594500054 C20.346504789418233 0.138053484500006 23.020859841718263 -5.431474927400018 26.210457610718251 -9.945982538700036 L13.329389697818257 -9.945982538700036 C10.728640747718188 -6.290212788200051 8.348710104818267 -1.137785623099944 6.214133136318239 5.535834324199982 C4.055020800518193 12.184918904000028 3.000000000018233 18.711326646499970 3.000000000018233 25.065986816900022 C3.000000000018233 31.420646987200030 4.079556167918255 37.947054729800016 6.214133136318239 44.620674677000011 C8.348710104818267 51.294294624299994 10.728640747718188 56.471257156899981 13.329389697818257 60.127026907400023 L26.210457610718251 60.127026907400023 C23.020859841718263 55.563448561100017 20.321969421918240 50.018455516699987 18.138321718618201 43.467512406700052 z" />
<glyph unicode=")" horiz-adv-x="29.210457610700004" d="M2.999999999999993 60.127026907400001 L15.881067912900008 60.127026907400023 C18.481816862999963 56.471257156899981 20.861747505899999 51.294294624299994 22.996324474400026 44.620674677000011 C25.109340059299953 38.014465032299995 26.188540751000019 31.552508628400005 26.210127193299982 25.258604821700033 C26.210127193299982 25.258604821700033 26.210127193299982 25.258604821700033 26.210127193299982 25.258604821700033 C26.210347463100007 25.194381313500003 26.210457610700033 25.130175303499982 26.210457610700033 25.065986816900022 C26.210457610700033 18.711326646499970 25.155436810199959 12.184918904000028 22.996324474400026 5.535834324199982 C20.861747505899999 -1.137785623099944 18.481816862999963 -6.290212788200051 15.881067912900008 -9.945982538700036 L3.000000000000014 -9.945982538700036 C6.189597769000002 -5.431474927400018 8.863952821300032 0.138053484500006 11.072135892099951 6.688996594500054 C13.280318962899983 13.239939704499989 14.384410498299999 19.398316935200000 14.384410498299999 25.090522184299971 C14.384410498299999 30.782727433499986 13.280318962899983 36.916569296800049 11.072135892099951 43.467512406700052 C8.888488188800025 50.018455516699987 6.189597769000002 55.563448561100017 3.000000000000014 60.127026907400023 z" />
<glyph unicode="*" horiz-adv-x="33.577227730357549" d="M-2.343460843119924 -181.316397431300004 L-2.343460843119971 -181.316397431299947 L-2.343460843119971 -181.316397431299947 L-2.343460843119971 -181.316397431299947 zM20.781909192380077 35.717226231700003 L21.251708642680086 29.022584065500041 L12.325519087680135 29.022584065500041 L12.795318537980023 35.717226231700010 L7.134235162280078 31.817890794500045 L3.070469917580084 39.076292300999967 L9.788602056280041 42.411868397899980 L2.999999999980076 45.747444494799993 L7.134235162280078 52.841416193700013 L12.795318537980023 49.083020591600018 L12.325519087680135 55.777662757799988 L21.251708642680086 55.777662757799988 L20.781909192380084 49.083020591600018 L26.442992568080030 52.841416193700013 L30.577227730380031 45.747444494799993 L23.812115646580054 42.411868397899980 L30.506757812780023 39.052802328499979 L26.442992568080030 31.794400821999943 L20.781909192380084 35.717226231700010 z" />
<glyph unicode="+" horiz-adv-x="44.900719807876726" d="M-30.082957701139343 -83.616397431300001 L-30.082957701139321 -83.616397431300015 L-30.082957701139321 -83.616397431300015 L-30.082957701139321 -83.616397431300015 zM31.117152715360660 32.919711902400003 L41.900719807860696 32.919711902399968 L41.900719807860696 23.134623244299974 L31.117152715360703 23.134623244299974 L31.117152715360703 32.919711902399968 zM27.961960862360655 32.919711902400003 L27.961960862360684 37.712408387900041 L27.961960862360684 47.257862221699952 L16.978698082960705 47.257862221699952 L16.978698082960705 32.919711902399968 L2.999999999960664 32.919711902399968 L2.999999999960664 23.134623244299974 L16.978698082960705 23.134623244299974 L16.978698082960705 8.796472924999989 L27.961960862360684 8.796472924999989 L27.961960862360684 23.134623244299974 L27.961960862360684 32.919711902399968 z" />
<glyph unicode="," horiz-adv-x="20.933907519410937" d="M-2.504661828861458 -215.716397431300010 L-2.504661828861458 -215.716397431300038 L-2.504661828861458 -215.716397431300038 L-2.504661828861458 -215.716397431300038 zM6.023554463538545 2.110506205700000 C4.164477056938495 3.438418639000020 3.245153064638544 5.154490091299976 3.245153064638544 7.279149984699984 C3.245153064638544 9.403809877999947 3.960182836438548 11.119881330300018 5.390242379938513 12.468223185700026 C6.820301923538523 13.816565040999990 8.536373375838593 14.490735968700051 10.558886158938549 14.490735968700051 C12.560969519938567 14.490735968700051 14.297470394338575 13.836994463100041 15.747959359938591 12.509082029799970 C17.198448325538493 11.181169596399968 17.933907519438549 9.628533520599944 17.933907519438549 7.871603224200044 C17.933907519438549 6.094243505699978 17.157589481438549 3.969583612400015 15.625382827638532 1.477194122099945 L10.865327489738547 -6.694574698300016 L3.000000000038540 -6.694574698300016 L6.023554463538517 2.110506205699949 z" />
<glyph unicode="-" horiz-adv-x="34.369619775258919" d="M-34.102610752487557 -95.716397431299995 L-34.102610752487557 -95.716397431300038 L-34.102610752487557 -95.716397431300038 L-34.102610752487557 -95.716397431300038 zM3.000000000012442 18.759861669599999 L3.000000000012470 29.343346767100002 L31.369619775212492 29.343346767100002 L31.369619775212492 18.759861669600014 L3.000000000012470 18.759861669600014 z" />
<glyph unicode="." horiz-adv-x="20.043464295488022" d="M5.034869316265514 2.102136615400000 C3.687843149165502 3.449162782500025 2.999999999965468 5.111450393000041 2.999999999965468 7.088999446899948 C2.999999999965468 9.066548500700037 3.687843149165502 10.700175980000040 5.034869316265514 12.075862278299951 C6.381895483365525 13.422888445399963 8.044183093865541 14.110731594599997 10.021732147765562 14.110731594599997 C11.999281201565537 14.110731594599997 13.632908680865540 13.422888445399963 15.008594979165565 12.075862278299951 C16.355621146365507 10.728836111200053 17.043464295465498 9.066548500700037 17.043464295465498 7.088999446899948 C17.043464295465498 5.111450393000041 16.355621146365507 3.449162782500025 15.008594979165565 2.102136615400013 C13.661568812065553 0.755110448300002 11.999281201565537 0.067267299099967 10.021732147765562 0.067267299099967 C8.044183093865541 0.067267299099967 6.381895483365525 0.726450317099989 5.034869316265514 2.102136615400013 z" />
<glyph unicode="/" horiz-adv-x="50.662534208626461" d="M-44.957607715511550 -58.116397431300001 L-44.957607715511507 -58.116397431300015 L-44.957607715511507 -58.116397431300015 L-44.957607715511507 -58.116397431300015 zM36.368560040888447 65.136532054100002 L47.662534208588418 65.136532054100030 L14.236933894088416 -7.875018121000039 L2.999999999988482 -7.875018121000039 L36.368560040888461 65.136532054100030 z" />
<glyph unicode="0" horiz-adv-x="51.91090086003706" d="M-13.493393324124973 -160.816397431300004 L-13.493393324124995 -160.816397431299947 L-13.493393324124995 -160.816397431299947 L-13.493393324124995 -160.816397431299947 zM24.370961267375030 -0.360692686200000 C17.483016643275064 -0.020223940500046 12.245035940474978 2.546386603799988 8.709398966075028 7.391518753899959 C4.911862956475048 12.603309553200006 2.999999999975003 19.569823887900043 2.999999999975003 28.291061758100000 C2.999999999975003 37.012299628299957 4.885673052975008 43.978813962999993 8.709398966075028 49.190604762299984 C12.245035940474978 54.035736912400012 17.483016643275064 56.602347456699988 24.370961267375051 56.942816202400024 L24.370961267375051 46.676374024900042 C21.463881977374982 46.231145665199961 19.263930082174980 44.581181743800016 17.771105581874977 41.700292357299986 C16.016382046474988 38.295604900400008 15.152115230475047 33.843321303099970 15.152115230475047 28.264871854599960 C15.152115230475047 22.686422406099950 16.016382046474988 18.207948905200055 17.771105581874977 14.829451351900047 C19.263930082174980 11.922372061800047 21.463881977374982 10.272408140500033 24.370961267375051 9.853369684199947 L24.370961267375051 -0.360692686199968 zM48.910900860075031 28.238681951099998 C48.910900860075017 19.517444080899963 47.025227807075012 12.550929746200040 43.201501893974992 7.339138946899993 C39.665864919575043 2.494006796800022 34.427884216775070 -0.072603747599942 27.539939592575038 -0.413072493200048 L27.539939592575038 9.827179780700021 C30.447018882675039 10.272408140500033 32.646970777875040 11.922372061800047 34.139795278175043 14.803261448400008 C35.894518813575033 18.207948905200055 36.758785629575087 22.660232502600024 36.758785629575087 28.238681951100034 C36.758785629575087 33.817131399499999 35.894518813575033 38.295604900400008 34.139795278175043 41.674102453700016 C32.646970777875040 44.554991840299977 30.447018882675039 46.204955761700035 27.539939592575038 46.623994217899963 L27.539939592575038 56.942816202400024 C34.427884216775070 56.602347456699988 39.665864919575043 54.035736912400012 43.201501893974992 49.190604762299984 C47.025227807075012 43.952624059499954 48.910900860075017 36.986109724699986 48.910900860075017 28.238681951100034 z" />
<glyph unicode="1" horiz-adv-x="31.535051426112638" d="M10.380444650394971 -232.516397431299993 L10.380444650394971 -232.516397431299993 L10.380444650394971 -232.516397431299993 L10.380444650394971 -232.516397431299993 zM2.999999999994969 55.765536481700003 L13.422469969794925 55.765536481699996 L13.422469969794925 45.169358678999970 L2.999999999994948 45.169358678999970 L2.999999999994948 55.765536481699996 zM16.587812701394974 55.765536481700003 L16.587812701394974 45.169358678999970 L16.587812701394974 0.101826494600004 L28.535051426094988 0.101826494600004 L28.535051426094988 55.765536481699996 L16.587812701394974 55.765536481699996 z" />
<glyph unicode="2" horiz-adv-x="46.214046731304848" d="M-35.570487496116378 -96.616397431300001 L-35.570487496116399 -96.616397431300015 L-35.570487496116399 -96.616397431300015 L-35.570487496116399 -96.616397431300015 zM27.382332883483627 34.036123024299997 C28.763873950383598 36.052426203100026 29.473313957783674 37.956712538500028 29.473313957783674 39.823659926199980 C29.473313957783674 41.690607313900045 28.875890793683610 43.258843119599987 27.643705517783658 44.491028395500052 C26.411520241883593 45.723213671400003 24.843284436183652 46.357975783200004 22.938998100783650 46.357975783200004 C19.429137011883611 46.357975783200004 16.105970661783616 43.893605231399988 12.969499050383618 38.890186232399969 L2.999999999983586 44.789739977499949 C5.576387395083614 48.822346335000020 8.451486372083608 51.884140050799999 11.550619035683624 53.937782177299994 C14.649751699283641 55.991424303799988 18.607680161283568 57.036914840900010 23.424404421583588 57.036914840900010 C28.241128681883609 57.036914840900010 32.460429778083679 55.506017982999992 36.119646657983665 52.481563214900007 C39.741524590183602 49.419769499099971 41.571133030083573 45.275146298400045 41.571133030083573 40.010354665000023 C41.571133030083573 37.135255687899985 40.824354075083605 34.372173554099959 39.368135112583630 31.758447211299995 C38.509339314283650 30.227550353400034 37.202476142883668 28.397941913400018 35.447545598383684 26.306960839199974 L10.617145341883614 0.132358463500054 L3.970812641583578 0.132358463500054 L3.970812641583578 9.355078558799960 L20.287932810183591 26.082927152699995 C23.573760212583650 29.406093502799990 25.926113921083655 32.094497741099985 27.382332883483585 34.036123024299968 zM14.537734856083624 0.095019515700000 L43.214046731283659 0.095019515699960 L43.214046731283659 11.259364894199962 L25.104657070483611 11.259364894199962 L14.537734856083674 0.095019515699960 z" />
<glyph unicode="3" horiz-adv-x="45.875422164413607" d="M-28.361237575144123 -77.016397431300007 L-28.361237575144102 -77.016397431299993 L-28.361237575144102 -77.016397431299993 L-28.361237575144102 -77.016397431299993 zM23.545695962755872 45.223278704800002 L6.102819390255902 45.223278704800009 L6.102819390255902 55.831566620300009 L40.233832683455901 55.831566620300009 L40.233832683455901 47.193988317599974 L28.828874924555819 34.195690871800025 L20.736386514755921 24.971092684399991 L12.853548063755923 32.644281176599975 L23.545695962755829 45.223278704800009 zM42.875422164455870 18.220364010899999 C42.875422164455884 12.392095156199957 40.862782559855830 7.779796062500054 36.921363334355831 4.467326713399984 C32.979944108855832 1.154857364300028 27.906415105855856 -0.522342306099972 21.742706317055834 -0.522342306099972 C15.578997528255925 -0.522342306099972 9.331428755855839 1.658017265500007 2.999999999955847 6.018736408600034 L8.115458994755912 15.914214464100041 C13.398637956655833 12.182445197400057 18.094797033855869 10.337525559899973 22.245866218155882 10.337525559899973 C24.719735732055895 10.337525559899973 26.774305328355879 10.966475436300016 28.409575006955905 12.182445197400057 C30.044844685655860 13.398414958499984 30.841514529055829 15.159474612400004 30.841514529055829 17.465624159200047 C30.841514529055829 19.771773706100021 29.877124718555891 21.616693343499946 28.032205081155851 22.958453079899982 C27.025885278855824 23.671262939800044 25.851845509555872 24.174422840899979 24.510085773255881 24.509862774999988 L32.267134248955884 33.357091036500037 C35.118373688655836 32.350771234300055 37.424523235555924 30.799361539100005 39.185582889455830 28.619001967599957 C41.617522411555868 25.600042560800034 42.833492172655909 22.119853244700039 42.875422164455884 18.220364010899971 z" />
<glyph unicode="4" horiz-adv-x="49.1527865364326" d="M-28.788018093039060 -79.716397431299995 L-28.788018093039014 -79.716397431300038 L-28.788018093039014 -79.716397431300038 L-28.788018093039014 -79.716397431300038 zM46.152786536460937 24.230596192499998 L40.076085863360944 24.230596192500002 L40.076085863360944 55.722686842799988 L28.127978458860966 36.876702998599967 L28.127978458860966 24.230596192500002 L25.377039640660982 24.230596192500002 L23.365159012460921 24.230596192500002 L17.493752281060992 24.230596192500002 L36.380794913560962 55.845863207799994 L22.831394764160891 55.845863207799994 L2.999999999960991 22.957773754200048 L2.999999999960991 13.473193649600034 L23.365159012460921 13.473193649600034 L28.127978458860966 13.473193649600034 L28.127978458860966 0.170146230199975 L28.127978458860966 -0.117265288100043 L40.076085863360944 -0.117265288100043 L40.076085863360944 13.473193649600034 L46.152786536460994 13.473193649600034 L46.152786536460994 24.230596192500002 z" />
<glyph unicode="5" horiz-adv-x="45.778933924768609" d="M-31.596586397819578 -68.516397431300007 L-31.596586397819578 -68.516397431299993 L-31.596586397819578 -68.516397431299993 L-31.596586397819578 -68.516397431299993 zM20.560069930780422 55.842754945800003 L39.374430570880463 55.842754945799982 L39.374430570880463 45.091691722900009 L20.560069930780401 45.091691722900009 L20.560069930780401 55.842754945799982 zM42.778933924780418 18.438014149400001 C42.778933924780404 12.972890344399957 40.807905667280465 8.403688474699948 36.776256958680392 4.820000733699999 C32.744608250080432 1.236312992700050 27.817037606180406 -0.555530877699994 21.903952833580433 -0.555530877699994 C14.333412480780453 -0.555530877699994 8.061958934080394 2.221827121500041 2.999999999980446 7.821339216799970 L9.540230127280438 16.914946859499992 C10.032987191680377 16.466985891899981 10.660132546280465 15.839840537199962 11.466462288080379 15.167899085799945 C12.272792029780362 14.495957634299998 13.751063222880362 13.555239602300048 15.856479770680380 12.435337183300021 C17.961896318580443 11.315434764199949 20.112108963180390 10.733085506299972 22.217525510980408 10.733085506299972 C24.322942058780427 10.733085506299972 26.204378122780440 11.405026957699988 27.861833702980448 12.659317667100026 C29.519289283180456 13.913608376400020 30.325619024880439 15.795044440400034 30.325619024880439 18.303625859099952 C30.325619024880439 20.812207277799985 29.429697089680417 22.738439438600039 27.637853219180442 24.082322341399959 C25.846009348680468 25.426205244300036 23.561408413780441 26.098146695700052 20.739254317780365 26.098146695700052 C17.917100221780402 26.098146695700052 14.646985158180428 25.067836470199950 10.928909126880399 23.052012115899970 L5.732561902480370 28.651524211200012 L5.732561902480370 55.842754945799982 L17.379547060680466 55.842754945799982 L17.379547060680466 45.091691722900009 L17.379547060680466 35.774103596300051 C18.992206544080432 36.266860660699990 20.918438704880373 36.490841144499996 23.023855252680391 36.490841144499996 C28.399386864080384 36.490841144499996 33.013384830580435 34.833385564299988 36.910645248880428 31.608066597500056 C40.807905667280465 28.382747630599965 42.778933924780404 23.903137954399995 42.778933924780404 18.438014149400033 z" />
<glyph unicode="6" horiz-adv-x="47.468980027452062" d="M44.468980027420173 18.159267995600000 C44.468980027420216 12.519162101500001 42.602470163220218 8.015192646500054 38.869450434720179 4.606783329100040 C35.136430706220139 1.198374011799956 30.429579744220163 -0.505830646899994 24.748897548620207 -0.505830646899994 C20.812996313120138 -0.505830646899994 17.404586995820168 0.265119079699957 14.523669596620138 1.766442231399992 C11.602175896120215 3.267765382999983 9.370479319320211 5.377733055699991 7.788003564820187 8.096345249300043 C4.582475754520132 13.330688129399960 3.000000000020222 19.904048955699977 3.000000000020222 27.816427728100052 C3.000000000020222 32.888465402599991 3.608644520920151 37.351858556300044 4.866509864220220 41.206607189000010 C6.083798906120123 45.061355821699976 7.788003564820187 48.104578426399996 9.979123840220140 50.336275003200001 C14.199059185520227 54.799668156899997 19.473978367020194 57.031364733700002 25.722728782120143 57.031364733700002 C28.319612071520154 57.031364733700002 30.794766456720126 56.625601719700001 33.026463033620175 55.935804596000025 C35.379888514620220 55.164854869500004 37.205822077420166 54.393905142899996 38.463687420720234 53.582379114999981 C39.721552764020188 52.770853086999978 41.141723312920121 51.756445552099990 42.683622766020207 50.539156510199973 L36.800059063520152 41.774675408500002 C36.475448652320196 42.058709518300020 36.029109336920200 42.505048833700016 35.420464816020157 43.032540751799957 C34.811820295020183 43.560032670000055 33.594531253120167 44.249829793699973 31.809173991720158 45.101932123100028 C30.023816730220219 45.954034452400037 28.279035770120217 46.359797466399982 26.574831111520197 46.359797466399982 C23.125845492820176 46.359797466399982 20.447809600620175 45.223661027299954 18.581299736320133 42.910811847600030 C18.216113023820171 42.464472532299965 17.850926311220164 41.977556915500031 17.485739598620157 41.490641298800028 C17.485739598620157 41.477115864999973 17.485739598620157 41.450064997399977 17.485739598620157 41.450064997399977 C16.998823981820223 40.760267873600014 16.552484666520158 40.029894448500045 16.187297953920151 39.177792119099990 C16.024992748320173 38.934334310799954 15.903263844120133 38.690876502399988 15.862687542720195 38.528571296800010 C14.604822199420127 34.714398965499981 14.401940692520142 31.671176360699974 14.401940692520142 26.558562384799984 C14.401940692520142 22.622661149300029 14.604822199420127 19.904048955699977 15.416348227420130 16.617368542600047 L15.456924528820181 16.617368542600047 C15.822111241320144 15.075469089499961 16.552484666520158 13.695874841999967 17.688621105620186 12.478585800099950 C19.392825764320136 10.693228538600010 21.502793436920214 9.800549907899949 24.059100424920175 9.800549907899949 C26.615407412920135 9.800549907899949 28.725375085520213 10.571499634500015 30.429579744220163 12.153975388899994 C32.133784402820183 13.736451143400018 32.985886732220123 15.765266213199993 32.985886732220123 18.280996899800016 C32.985886732220123 20.796727586400038 32.255513307020109 22.947271560499985 30.713613853920137 24.651476219100005 C29.212290702320146 26.396257179200006 27.142899331020189 27.248359508500016 24.505439740220126 27.248359508500016 C22.111437957820144 27.248359508500016 20.082622888020168 26.558562384799984 18.378418229320218 25.260120740099978 L18.378418229320218 35.201314582300029 C20.894148915920127 36.256298418599954 23.450455903920201 36.824366638099946 26.169068097520139 36.824366638099946 C31.362834676320162 36.824366638099946 35.704498925720131 35.120161979500040 39.194060845920134 31.711752662100025 C42.643046464620156 28.343919646199993 44.387827424620227 23.799373889799995 44.468980027420216 18.159267995599976 z" />
<glyph unicode="7" horiz-adv-x="46.716157076043132" d="M-1.448155966667606 -198.516397431299993 L-1.448155966667628 -198.516397431299993 L-1.448155966667628 -198.516397431299993 L-1.448155966667628 -198.516397431299993 zM29.713824712432398 55.730291962700001 L3.043757288632378 0.071020817400040 L16.542880832932383 0.071020817400040 L43.716157076032346 55.730291962699994 L29.713824712432370 55.730291962699994 zM26.169484332932392 55.730291962700001 L3.000000000032401 55.730291962699994 L3.000000000032401 45.053513535499974 L21.159274784032391 45.053513535499974 L26.169484332932370 55.730291962699994 z" />
<glyph unicode="8" horiz-adv-x="48.478551607372488" d="M3.660440273379635 -213.616397431299987 L3.660440273379656 -213.616397431300015 L3.660440273379656 -213.616397431300015 L3.660440273379656 -213.616397431300015 zM45.478031580779636 16.857379652100001 C45.478031580779650 11.964180383699954 43.516533598179642 7.851362032999987 39.593537632879695 4.518924600100036 C35.670541667679679 1.165395791099968 30.545337261479624 -0.500822925299985 24.239015790379646 -0.500822925299985 C17.932694319379600 -0.500822925299985 12.807489913179658 1.186487167300015 8.884493947879598 4.518924600100036 C4.961497982579651 7.872453409099990 2.999999999979643 11.985271759799957 2.999999999979643 16.857379652100008 C2.999999999979643 22.636416719200042 5.298960001179687 27.297610849999955 9.917971379579619 30.862053420599977 C6.564442570579665 33.983577091899974 4.898223854179598 37.674567919400033 4.898223854179598 41.913934527000038 C4.898223854179598 46.153301134600042 6.733173579879683 49.738835081399998 10.424164407379628 52.649444991099983 C13.672236335579662 55.243684258399981 17.658506429279662 56.677897837099977 22.340791936279622 56.973177103300031 L22.340791936279622 47.207869942499997 C21.075309366779599 46.933682052499989 19.915283678179655 46.385306272400044 18.902897622579637 45.520559849899996 C17.405409915479588 44.255077280500018 16.667211749979622 42.673224068700051 16.667211749979622 40.796091590700030 C16.667211749979622 38.918959112700009 17.426501291579591 37.337105900900042 18.945080374879687 36.071623331400019 C19.978557806579595 35.206876909000016 21.117492119079650 34.658501128899957 22.361883312379625 34.384313238899949 L22.361883312379625 24.429183692599963 C20.822212852879595 24.154995802599956 19.409090650379646 23.585528646299963 18.122516704779621 22.678599471600023 C16.329749731379586 21.413116902100001 15.422820556679646 19.578167176400029 15.422820556679646 17.194841670700043 C15.422820556679646 14.811516164900013 16.350841107579633 12.997657815399975 18.206882209379607 11.753266622100000 C20.062923311279626 10.508875428800025 22.087695422379618 9.876134144099979 24.260107166579580 9.876134144099979 C26.432518910779656 9.876134144099979 28.457291021879648 10.508875428800025 30.313332123679622 11.753266622100000 C32.169373225579641 12.997657815399975 33.097393776479628 14.811516164900013 33.097393776479628 17.194841670700043 C33.097393776479628 19.578167176400029 32.190464601679643 21.413116902100001 30.397697628379653 22.678599471600023 C28.942392673479610 23.712076903300044 27.318356709379593 24.302635435700040 25.546681112179606 24.492457821099947 L25.546681112179606 34.236673605799979 C27.023077443179652 34.468678743500050 28.372925517279661 35.059237275900045 29.554042582079653 36.050531955300016 C31.072621665379636 37.316014524699995 31.831911207079649 38.897867736499961 31.831911207079649 40.775000214499983 C31.831911207079649 42.652132692500004 31.072621665379636 44.233985904299971 29.596225334379589 45.499468473799993 C28.436199645679601 46.511854529299967 27.065260195479588 47.102413061699963 25.546681112179606 47.313326823300031 L25.546681112179606 56.994268479500022 C30.503154509079643 56.783354717900011 34.658155612079661 55.349141139200015 38.053867173479595 52.649444991099983 C41.702675248679604 49.738835081399998 43.537624974379575 46.132209758500039 43.537624974379575 41.871751774699987 C43.537624974379575 37.611293790900049 41.892497634079625 33.941394339600038 38.602242953479610 30.862053420599977 C43.200162955779653 27.297610849999955 45.520214333079586 22.636416719200042 45.478031580779650 16.857379652100008 z" />
<glyph unicode="9" horiz-adv-x="47.502108939320664" d="M15.355866539645689 -270.316397431300004 L15.355866539645731 -270.316397431299947 L15.355866539645731 -270.316397431299947 L15.355866539645731 -270.316397431299947 zM3.000000000045688 38.374233327600002 C3.000000000045716 44.031230928100058 4.885665866845684 48.553337034600020 8.622077862245661 51.958011516400006 C12.375949726745731 55.362685998199993 17.090114393745708 57.056293304500002 22.764571863445681 57.056293304500002 C26.693042419245685 57.056293304500002 30.097716901045729 56.305518931599977 32.996055177845747 54.786510316600015 C35.876933585545672 53.267501701699985 38.129256704245691 51.154857536099996 39.718104795745731 48.448577819799993 C42.913260847845677 43.193157209499986 44.502108939345717 36.610786544699977 44.502108939345717 28.701465825500009 C44.502108939345717 23.603184037399956 43.891013519545723 19.115997669199942 42.633902941645729 15.274826458999996 C41.394252232845716 11.433655248800051 39.683185057445726 8.395638018899945 37.500701415245672 6.160774769300019 C33.257953214945715 1.708508139299965 28.002532604545664 -0.526355110299960 21.734439584345651 -0.526355110299960 C19.132919082845675 -0.526355110299960 16.636157796245712 -0.142237989300042 14.279075462645679 0.625996252799951 C11.904533260045710 1.411690364000037 10.088706869745707 2.179924605999986 8.814136422745733 2.983078586300053 C7.539565975645715 3.768772697500026 6.125316575545654 4.781445107400032 4.588848091445712 6.003635947099951 L10.490283859845718 14.768490253999971 C10.804561504345671 14.454212609500019 11.275977971045691 14.017715881100003 11.887073390845686 13.493919806999997 C12.498168810645680 12.952663863699968 13.720359650245669 12.271728967299964 15.518726171445692 11.416195379600026 C17.317092692545671 10.560661791899975 19.080539475445690 10.141624932600052 20.774146781745699 10.141624932600052 C24.231200870945727 10.141624932600052 26.902560848945669 11.293976295699963 28.788226715745637 13.598679021799967 C29.172343836745668 14.070095488499987 29.539001088645719 14.541511955200008 29.888198471445676 15.030388291000008 L29.905658340545656 15.030388291000008 C29.905658340545656 15.030388291000008 29.923118209645637 15.047848160200033 29.923118209645637 15.065308029300013 C30.411994545545681 15.763702794799997 30.865951143145722 16.497017298599985 31.232608394945728 17.352550886300037 C31.372287348045703 17.614448923299960 31.494506432045696 17.858887091299948 31.546886039445681 18.016025913500016 C32.786536748245695 21.857197123699962 32.996055177845747 24.912674222700048 32.996055177845747 30.010956010799987 C32.996055177845747 33.956886435800016 32.769076879045670 36.680626021299986 31.965922898745717 39.963081419100035 L31.931003160445712 39.980541288200016 C31.564345908545661 41.517009772299957 30.831031404845717 42.913799303300038 29.678680041745693 44.118530273700003 C27.985072735445684 45.899436925700002 25.872428569845638 46.789890251699944 23.323287675845691 46.789890251699944 C20.791606650845679 46.789890251699944 18.661502616145654 46.004196140600015 16.967895309845645 44.415348049099975 C15.274288003545635 42.843959826700029 14.418754415745653 40.783695268499969 14.418754415745653 38.269474112800026 C14.418754415745653 35.755252957000039 15.186988657845646 33.642608791399994 16.705997272745677 31.914081746799980 C18.225005887745638 30.185554702199966 20.302730315045679 29.330021114500028 22.939170554745729 29.330021114500028 C25.348632495745633 29.330021114500028 27.373977315645689 30.010956010799987 29.067584621945699 31.302986326999985 L29.067584621945699 21.333401049599956 C26.570823335345736 20.250889163100055 23.986762703045670 19.692173350700045 21.280482986745724 19.692173350700045 C16.077441983845702 19.692173350700045 11.729934568645731 21.385780657000055 8.255420610345723 24.790455138799985 C4.780906652045715 28.195129620499984 3.034919738245677 32.717235727100046 3.000000000045716 38.374233327599995 z" />
<glyph unicode=":" horiz-adv-x="20.017144129542913" d="M21.888313521791730 -303.216397431299981 L21.888313521791687 -303.216397431300038 L21.888313521791687 -303.216397431300038 L21.888313521791687 -303.216397431300038 zM5.031245443591736 23.383795393100002 C3.682250377991735 24.732790458599993 2.999999999991687 26.391899332400044 2.999999999991687 28.361122014300008 C2.999999999991687 30.330344696199973 3.682250377991735 31.989453569899979 5.031245443591715 33.338448635499958 C6.380240509091763 34.687443701100051 8.039349382891700 35.369694079099986 10.008572064791778 35.369694079099986 C11.977794746691742 35.369694079099986 13.636903620391749 34.687443701100051 14.985898685991728 33.338448635499958 C16.334893751591707 31.989453569899979 17.017144129591756 30.330344696199973 17.017144129591756 28.361122014300008 C17.017144129591756 26.391899332400044 16.334893751591707 24.732790458599993 14.985898685991728 23.383795393099945 C13.636903620391749 22.034800327499966 11.977794746691742 21.352549949500030 10.008572064791778 21.352549949500030 C8.054855073291705 21.352549949500030 6.380240509091763 22.019294637099961 5.031245443591715 23.383795393099945 zM5.031245443591736 2.420101960400000 C3.682250377991735 3.769097026000054 2.999999999991687 5.428205899699947 2.999999999991687 7.397428581600025 C2.999999999991687 9.366651263499989 3.682250377991735 11.025760137300040 5.031245443591715 12.374755202799975 C6.380240509091763 13.723750268399954 8.039349382891700 14.406000646400003 10.008572064791778 14.406000646400003 C11.977794746691742 14.406000646400003 13.636903620391749 13.723750268399954 14.985898685991728 12.374755202799975 C16.334893751591707 11.025760137300040 17.017144129591756 9.366651263499989 17.017144129591756 7.397428581600025 C17.017144129591756 5.428205899699947 16.334893751591707 3.769097026000054 14.985898685991728 2.420101960399961 C13.636903620391749 1.071106894799982 11.977794746691742 0.388856516800047 10.008572064791778 0.388856516800047 C8.054855073291705 0.388856516800047 6.380240509091763 1.071106894799982 5.031245443591715 2.420101960399961 z" />
<glyph unicode=";" horiz-adv-x="21.077507453891691" d="M0.525203425128900 -232.116397431299987 L0.525203425128879 -232.116397431300015 L0.525203425128879 -232.116397431300015 L0.525203425128879 -232.116397431300015 zM6.116147240128903 0.859939412800000 C4.200007011728857 2.234140990800029 3.251614373428865 3.995441604800021 3.251614373428865 6.124486303000026 C3.251614373428865 8.253531001299962 3.967747590128951 9.995476663499971 5.400014023428852 11.350323289600055 C6.832280456828911 12.705169915799956 8.574226119028921 13.382593228800033 10.625851010028882 13.382593228800033 C12.677475901128886 13.382593228800033 14.419421563328896 12.724524867600053 15.890397900228876 11.389033193200021 C17.342019285428918 10.053541518900033 18.077507453928874 8.524500326499947 18.077507453928874 6.801909616100033 C18.077507453928874 5.079318905700006 17.303309381828953 2.872854400299957 15.754913237628884 0.221226003400034 L10.819400528028936 -7.985273560800010 L3.000000000028862 -7.985273560800010 L6.116147240128939 0.859939412800031 zM5.283884312628899 22.440710672300000 C3.929037686528872 23.795557298400013 3.251614373428865 25.460083153399978 3.251614373428865 27.434288237200008 C3.251614373428865 29.408493321000037 3.929037686528872 31.053664224200020 5.283884312628842 32.427865802200017 C6.638730938828857 33.782712428299988 8.303256793828936 34.460135741399995 10.277461877628852 34.460135741399995 C12.251666961428882 34.460135741399995 13.916192816428847 33.782712428299988 15.271039442528931 32.427865802200017 C16.625886068728946 31.073019176000003 17.303309381828953 29.408493321000037 17.303309381828953 27.434288237200008 C17.303309381828953 25.460083153399978 16.625886068728946 23.795557298400013 15.271039442528931 22.440710672300042 C13.916192816428847 21.085864046100028 12.251666961428882 20.408440733000020 10.277461877628852 20.408440733000020 C8.303256793828936 20.408440733000020 6.638730938828857 21.085864046100028 5.283884312628842 22.440710672300042 z" />
<glyph unicode="&#x3c;" horiz-adv-x="44.735580167993163" d="M10.631156270517852 -224.416397431299998 L10.631156270517874 -224.416397431299970 L10.631156270517874 -224.416397431299970 L10.631156270517874 -224.416397431299970 zM3.000000000017852 27.010467476500001 L3.000000000017859 37.920488764100014 L41.735580168017819 56.177258331699989 L41.735580168017819 44.466501536699980 L16.152080708217806 32.655652803299972 L41.735580168017819 20.544528254700026 L41.735580168017819 8.753697909000039 L3.000000000017859 27.010467476500025 z" />
<glyph unicode="=" horiz-adv-x="48.010132483784496" d="M3.100000000000001 -209.216397431300010 L2.999999999999979 -209.216397431300038 L3.100000000000001 -209.216397431300038 L3.100000000000001 -209.216397431300038 zM6.199746922800003 42.961453214700001 L45.010132483800000 42.961453214699986 L45.010132483800000 33.169553013599966 L6.199746922800024 33.169553013599966 L6.199746922800024 42.961453214699986 zM6.199746922800003 23.125500876000000 L45.010132483800000 23.125500876000046 L45.010132483800000 13.333600674900026 L6.199746922800024 13.333600674900026 L6.199746922800024 23.125500876000046 z" />
<glyph unicode="&#x3e;" horiz-adv-x="44.735580167999998" d="M3.000000000000007 8.753697909000000 L3.000000000000014 20.544528254700026 L28.583499459800024 32.655652803299972 L3.000000000000014 44.466501536699980 L3.000000000000014 56.177258331699989 L41.735580167999970 37.920488764100014 L41.735580167999970 27.010467476500025 L3.000000000000014 8.753697909000039 z" />
<glyph unicode="?" horiz-adv-x="41.000663729913512" d="M48.744923946547786 -395.916397431300027 L48.744923946547829 -395.916397431300084 L48.744923946547829 -395.916397431300084 L48.744923946547829 -395.916397431300084 zM26.594655644947789 17.616096226300002 L14.470158861647750 17.616096226299987 L14.470158861647750 23.594948608300001 C14.470158861647750 25.776075013700051 14.752422278847806 27.405504740200058 15.304118957847781 28.496067942900027 C15.868645792147735 29.586631145599995 17.049020082247811 31.062099008099949 18.858071983247786 32.922471530400003 L24.285227686147781 38.503589097300051 C25.080697316447758 39.465850746800015 25.478432131547837 40.697545658100012 25.478432131547837 42.211503986599951 C25.478432131547837 43.725462315100003 25.055037005747753 44.995647692399984 24.208246754247742 45.996399807800003 C23.348626347347821 47.009982078600046 22.232402833947734 47.523188291700023 20.859576214047824 47.523188291700023 C19.473919438847819 47.523188291700023 18.319205459547792 46.920170991299983 17.395434276047812 45.726966545999971 C16.458832937247738 44.533762100699960 15.894306102847739 42.942822840200051 15.676193462347786 40.979809075299954 L3.000000000047752 40.979809075299954 C3.590187145047825 46.291493380300039 5.527540599247803 50.474124016699989 8.824890518147757 53.502040673699980 C12.109410281647801 56.529957330699972 16.240720296647741 58.043915659200024 21.205990407947755 58.043915659200024 C26.171260519147840 58.043915659200024 30.212759446947761 56.683919194599980 33.330487191147768 53.976756420699985 C36.435384780147729 51.269593646899978 38.000663729947746 47.523188291700023 38.000663729947746 42.737540354999965 C38.000663729947746 40.607734570799948 37.731230468047784 39.029625465699951 37.205194099647770 37.990382884299947 C36.679157731347800 36.951140302900058 36.294253071547814 36.206991293900046 36.088970586347727 35.757935857500001 C35.870857945747730 35.308880421099957 35.383312043347814 34.628882188800048 34.613502723747729 33.730771315999959 C33.843693404247801 32.819830287799959 33.317657035847787 32.242473298099981 33.061053929347736 31.973040036299949 C31.778038396747778 30.702854658999968 30.572003796047742 29.496820058300045 29.430119972047809 28.380596544899959 C28.288236147947831 27.264373031600030 27.531256983747770 26.353432003400030 27.159182479247765 25.634943305100023 C26.787107974847803 24.916454606899947 26.607485800247790 23.838721559499959 26.607485800247790 22.401744162899945 L26.607485800247790 17.616096226299987 L26.594655644947810 17.616096226299987 zM15.714683928247783 2.425192320000000 C14.354687463747840 3.785188784599995 13.687519386747798 5.440278821699962 13.687519386747798 7.403292586599946 C13.687519386747798 9.366306351500043 14.367517619047820 11.034226543899990 15.714683928247840 12.381392853200055 C17.074680392847771 13.741389317700055 18.729770429947738 14.408557394699983 20.692784194847835 14.408557394699983 C22.655797959747819 14.408557394699983 24.323718152147766 13.728559162399961 25.670884461447830 12.381392853200055 C27.030880926047761 11.021396388600010 27.698049002947759 9.366306351500043 27.698049002947759 7.403292586599946 C27.698049002947759 5.440278821699962 27.018050770647736 3.772358629300015 25.670884461447830 2.425192319999951 C24.310887996847786 1.065195855400020 22.655797959747819 0.385197623099998 20.692784194847835 0.385197623099998 C18.729770429947738 0.385197623099998 17.061850237547791 1.065195855400020 15.714683928247840 2.425192319999951 z" />
<glyph unicode="A" horiz-adv-x="66.212969804096048" d="M39.131887778845787 55.794432823000001 L27.081082025345843 55.794432823000022 L3.000000000045823 0.036360546100013 L16.241515691645766 0.036360546100013 L16.877929624145743 1.514483228000017 L21.435474559845836 12.087166299599971 L21.435474559845836 12.087166299599971 L33.157808606245801 39.206611615399993 L49.971454112445720 0.036360546100013 L63.212969804145821 0.036360546100013 L39.131887778845801 55.794432823000022 zM41.698072990345786 12.087166299600000 L36.976292201045801 23.008850560000042 L29.318795529745792 23.008850560000042 L24.617544222245790 12.087166299599971 L41.698072990345743 12.087166299599971 z" />
<glyph unicode="B" horiz-adv-x="50.491995249819738" d="M47.491995249866889 15.542801944100001 C47.491995249866861 11.660363525799994 46.168720419166831 8.227339200999950 43.509687032966823 5.256212694400006 C40.426207003066949 1.798220919900018 35.058205331566953 0.075466895100021 27.405682018366903 0.075466895100021 L18.617139746766881 0.075466895100021 L18.617139746766881 10.599246916299990 L23.972657693566859 10.599246916299990 C27.530519266566827 10.599246916299990 30.202036377466854 11.036177284899964 31.987209026366870 11.910038022199956 C33.772381675266885 12.783898759400017 34.658726137366941 14.519136508999964 34.658726137366941 17.090783821400009 C34.658726137366941 19.674914858700049 33.709963051266911 21.372701433900033 31.824920603766870 22.196627271800025 C29.939878156266943 23.020553109799948 26.918816750466860 23.432516028800023 22.774220111066867 23.432516028800023 L18.604656021966932 23.432516028800023 L18.604656021966932 33.232240010599980 L21.338591756966863 33.232240010599980 C24.784099806666902 33.232240010599980 27.355747119066947 33.594268030299986 29.028566244666919 34.343291519300010 C30.701385370166847 35.079831283600015 31.537794932966946 36.690231785000037 31.537794932966946 39.162009298899989 C31.537794932966946 41.633786812800054 30.763803994266866 43.269154763900019 29.228305841666881 44.068113152199999 C27.680323964366877 44.867071540499978 25.083709202266888 45.266550734699990 21.413494105866832 45.266550734699990 L18.604656021966932 45.266550734699990 L18.604656021966932 55.790330755900015 L24.684230008166921 55.790330755900015 C28.466798627866908 55.790330755900015 31.712567080366895 55.340916662499978 34.458986540266935 54.442088475600031 C37.192922275366911 53.530776563900019 39.252736870266901 52.307371531800015 40.638430324966905 50.771873379199974 C43.135175288466868 47.900616671199998 44.383547770266816 44.654848218600023 44.383547770266816 41.047051746400030 C44.383547770266816 36.690231785000037 42.985370590666818 33.444463332500050 40.164048781866924 31.322230113500041 C39.202801970966831 30.573206624399972 38.541164555666839 30.111308806199986 38.166652811066953 29.924052933900043 C37.792141066566884 29.749280786499980 37.130503651266892 29.437187666000000 36.169256840266868 29.012741022199975 C39.627248614766856 28.263717533199952 42.373668074566851 26.703251930999954 44.420998944666891 24.343827940499978 C46.468329814766932 21.971920225100007 47.491995249866861 19.038244892999955 47.491995249866861 15.542801944100006 zM15.446273643166890 0.062983170300000 L2.999999999966846 0.062983170299958 L2.999999999966846 55.790330755900015 L15.446273643166862 55.790330755900015 L15.446273643166862 45.266550734699990 L15.446273643166862 33.232240010599980 L15.446273643166862 23.420032303999960 L15.446273643166862 10.586763191500040 L15.446273643166862 0.062983170299958 z" />
<glyph unicode="C" horiz-adv-x="58.794383877981986" d="M31.424009268689247 -0.001777352700000 C24.289526766189233 0.526702832599995 17.947764541689203 3.169103759499990 13.191442873289198 7.925425427899995 C7.642400926889259 13.210227281600055 4.999999999989264 19.816229598799964 4.999999999989264 27.743432379400019 C4.999999999989264 35.670635159999961 7.642400926889259 42.276637477199984 13.191442873289198 47.825679423599979 C18.212004634389196 52.582001091999985 24.289526766189233 55.224402018899980 31.159769175989204 55.752882204199977 L31.159769175989204 44.126318126000001 C27.724647971089276 43.597837940600016 24.818006951489288 42.276637477199984 22.175606024689223 39.898476642999981 C19.004724912389243 36.991835623500037 17.683524448989210 33.028234233200010 17.683524448989210 28.007672472100012 C17.683524448989210 22.987110711000014 19.004724912389243 19.023509320699986 22.175606024689223 15.852628208500050 C24.818006951489288 13.210227281600055 27.724647971089276 11.624786725500030 31.424009268689197 11.360546632800038 L31.424009268689197 -0.001777352699946 zM47.667615101489247 18.284343405000001 L55.353086144589220 10.333856118999961 C49.522728801489230 3.708450047399992 42.367290244189299 0.263238890099956 34.416802958189301 -0.001777352699946 L34.416802958189301 11.393921090500044 C39.982144058389231 11.658937333399990 44.222403944189246 14.044083519200058 47.667615101489282 18.284343404999959 zM34.330650288289249 55.772602514500001 C42.916143724189233 55.504305844599969 49.891857140789234 52.284745806099977 55.794383877989226 45.577329059300041 L48.282077121589232 36.991835623500037 C44.525923743389235 41.821175681100044 39.964880355589294 43.967549040100039 34.330650288289299 44.235845710000035 L34.330650288289299 55.772602514500022 z" />
<glyph unicode="D" horiz-adv-x="59.749765715528042" d="M56.749765715548655 28.505849509200001 C56.749765715548634 19.763180795800054 54.017681742548703 12.932970863399987 48.826722193948640 7.742011314800038 C43.635762645348692 2.551051766199976 35.712719123848629 0.092176190599957 25.057591629348636 0.092176190599957 L21.505882464548691 0.092176190599957 L21.505882464548691 11.020512082400046 L26.423633615848658 11.020512082400046 C32.161009959048684 11.020512082400046 36.532344315748688 12.386554068800024 39.537636685948669 15.391846439100050 C42.542929056248695 18.397138809300031 44.182179439948655 22.495264768700054 44.182179439948655 27.959432714599984 C44.182179439948655 33.423600660500028 42.542929056248695 37.521726619900051 39.537636685948669 40.527018990199963 C36.259135918448706 43.532311360399945 31.614593164448607 44.898353346899967 25.330800026648618 44.898353346899967 L21.505882464548691 44.898353346899967 L21.505882464548691 55.826689238600011 L25.604008423948599 55.826689238600011 C35.712719123848629 55.826689238600011 43.362554248148641 53.367813662999993 48.553513796648659 48.450062511700025 C54.017681742548703 43.532311360399945 56.749765715548634 36.975309825299973 56.749765715548634 28.505849509199948 zM18.513519181948652 0.081827420800000 L6.000000000048672 0.081827420799982 L6.000000000048672 55.848597687999984 L18.513519181948610 55.848597687999984 L18.513519181948610 44.967276660200014 L18.513519181948610 11.235181474199976 L18.513519181948610 0.081827420799982 z" />
<glyph unicode="E" horiz-adv-x="49.102518673471764" d="M20.515520293920410 11.187880702399999 L17.521297079320355 11.187880702399980 L17.521297079320355 22.620369340099955 L17.521297079320355 33.236251646500023 L17.521297079320355 44.668740284099954 L17.521297079320355 44.668740284099954 L20.515520293920439 44.668740284099954 L20.515520293920439 44.668740284099954 L45.285912342220421 44.668740284099954 L45.285912342220421 55.829026811400013 L5.000000000020371 55.829026811400013 L5.000000000020371 0.027594175199965 L46.102518673520443 0.027594175199965 L46.102518673520443 11.187880702399980 L20.515520293920439 11.187880702399980 zM20.515520293920410 33.236251646500001 L42.291689127620451 33.236251646500023 L42.291689127620451 22.620369340099955 L20.515520293920439 22.620369340099955 L20.515520293920439 33.236251646500023 z" />
<glyph unicode="F" horiz-adv-x="47.328898583485909" d="M5.999999999968242 55.804647418999998 L5.999999999968239 0.078234584899974 L18.504463367668293 0.078234584899974 L18.504463367668293 22.096963558400034 L18.504463367668293 32.970409965099975 L18.504463367668293 44.659364852200042 L18.504463367668293 44.931201012400038 L44.328898583468188 44.931201012400038 L44.328898583468188 55.804647418999991 L5.999999999968239 55.804647418999991 zM21.494661129468241 32.970409965100004 L42.969717782668297 32.970409965099975 L42.969717782668297 22.096963558400034 L21.494661129468298 22.096963558400034 L21.494661129468298 32.970409965099975 z" />
<glyph unicode="G" horiz-adv-x="58.502366348220718" d="M40.430979532302658 11.932853169400000 L40.430979532302622 0.563210483599960 C38.051286877102662 0.298800188600012 35.671594222002632 0.034389893599950 33.291901566802672 0.034389893599950 C25.359592716302650 0.034389893599950 18.484925045902692 2.678492843799972 13.196719145502648 7.966698744099972 C7.644102950202701 13.254904644500016 5.000000000002679 19.865162019900026 5.000000000002679 27.797470870400048 C5.000000000002679 35.729779720899955 7.644102950202701 42.340037096299966 13.196719145502648 47.892653291700015 C18.749335340902640 53.180859192000014 25.359592716302650 55.824962142199979 33.027491271802610 55.824962142199979 C40.959800122302632 55.824962142199979 47.570057497702642 53.180859192000014 53.387083988102695 48.157063586700019 L47.041236907702633 39.167113556100048 C44.661544252502672 41.282395916200016 42.546261892402704 42.604447391300027 40.430979532302622 43.397678276400029 C38.315697172102610 44.190909161399986 36.200414812002641 44.719729751500040 33.820722156802681 44.719729751500040 C29.325747141502639 44.719729751500040 25.359592716302650 43.133267981399968 22.186669176102619 39.960344441200050 C19.013745635902701 36.787420901000019 17.427283865802629 32.556856180700038 17.427283865802629 27.533060575399986 C17.427283865802629 22.509264970000004 19.013745635902701 18.543110544800015 21.922258881102671 15.370187004599984 C25.095182421302702 12.461673759400014 28.532516256502682 10.875211989300055 32.763080976802662 10.875211989300055 C35.671594222002632 10.875211989300055 38.051286877102662 11.139622284300003 40.166569237202630 11.932853169400005 L40.430979532302622 11.932853169400005 zM43.339492777402654 28.326291460400000 L55.502366348202663 28.326291460399943 L55.502366348202663 9.024339924200035 C52.329442808002632 5.322595793899950 48.098878087702651 2.678492843799972 43.339492777402661 1.356441368699961 L43.339492777402661 13.254904644500016 L43.339492777402661 28.061881165399996 L43.339492777402661 28.326291460399943 z" />
<glyph unicode="H" horiz-adv-x="61.072607879925108" d="M19.516415968120306 32.677134319700002 L19.516415968120260 55.805294260700009 L7.000000000020282 55.805294260700009 L7.000000000020282 0.025614402999963 L19.516415968120260 0.025614402999963 L19.516415968120260 0.025614402999963 L19.516415968120260 22.065390346799973 L19.516415968120260 32.677134319700031 zM41.556191911820306 55.805294260700002 L41.556191911820335 32.677134319700031 L22.509471960420274 32.677134319700031 L22.509471960420274 22.065390346799973 L41.556191911820335 22.065390346799973 L41.556191911820335 0.025614402999963 L54.072607879920312 0.025614402999963 L54.072607879920312 55.805294260700009 L41.556191911820335 55.805294260700009 z" />
<glyph unicode="I" horiz-adv-x="18.531155085135904" d="M3.000000000003733 55.855056670099998 L15.531155085103752 55.855056670099998 L15.531155085103752 0.009691616700024 L3.000000000003684 0.009691616700024 L3.000000000003684 55.855056670099998 z" />
<glyph unicode="J" horiz-adv-x="44.746041556165409" d="M41.746041556125896 55.822060785100000 L41.746041556125888 19.805215883799974 C41.746041556125888 13.035132255699978 40.121221485425863 8.160672043499972 36.600777998825848 4.911031901999991 C34.434351237825936 3.015408486200045 31.997121131725880 1.661391760600054 29.289087680525899 0.848981725200019 L29.289087680525899 18.992805848400053 C29.289087680525899 18.992805848400053 29.289087680525899 19.263609193499974 29.289087680525899 19.263609193499974 L29.289087680525899 45.260730325299960 L29.289087680525899 55.822060785100007 L41.746041556125888 55.822060785100007 zM26.039447539025897 0.307375034900000 C25.227037503725928 0.036571689799985 24.143824123225858 0.036571689799985 23.331414087825937 0.036571689799985 C16.832133804925906 0.036571689799985 10.874460212225944 2.473801795900044 6.000000000025938 7.619065353300016 L12.228476937825935 16.555575742299993 C15.748920424425950 13.035132255699978 19.269363911025852 11.139508839799987 22.789807397625868 11.139508839799987 C24.143824123225858 11.139508839799987 25.227037503725928 11.410312184999952 26.039447539025918 11.951918875200022 L26.039447539025918 0.307375034900019 z" />
<glyph unicode="K" horiz-adv-x="58.122076735198597" d="M43.639031507739048 16.455399870000001 C48.560336605239023 9.073442223800043 52.661424186439000 3.605325448800045 55.122076735238998 0.051049545100000 L40.631567281539070 0.051049545100000 L21.766564407839006 25.204386709999994 L21.766564407839006 36.414026098699992 L39.537943926539093 55.825840649800000 L54.848670896439067 55.825840649800000 L32.702797957839003 31.219315162500038 C34.616638829039026 28.485256775000039 38.170914732739071 23.563951677499972 43.639031507739070 16.455399869999951 zM18.504516599339048 16.120229146000000 L18.504516599339091 15.848391828600029 L18.504516599339091 0.081827420799982 L6.000000000039073 0.081827420799982 L6.000000000039073 55.808477482999990 L18.504516599339091 55.808477482999990 L18.504516599339091 32.974142823400030 L18.504516599339091 32.974142823400030 L18.504516599339091 16.120229146000042 z" />
<glyph unicode="L" horiz-adv-x="49.172391398470168" d="M19.510751912247432 11.232714994700000 L19.510751912247446 55.836265290600011 L7.000000000047425 55.836265290600011 L7.000000000047425 0.081827420799982 L19.510751912247446 0.081827420799982 L19.510751912247446 11.232714994700018 zM22.502453456447434 11.232714994700000 L43.172391398447431 11.232714994700018 L43.172391398447431 0.081827420799982 L22.502453456447387 0.081827420799982 L22.502453456447387 11.232714994700018 z" />
<glyph unicode="M" horiz-adv-x="72.238772545532228" d="M48.388100502667491 55.795888345100003 L33.983493756267514 25.355964654699960 L19.850672042867451 55.795888345100025 L5.174280263567518 55.795888345100025 L30.450288327967520 4.700302150499965 L37.788484217567522 4.700302150499965 L52.736661029867470 35.140225840900030 L52.736661029867470 0.079956590400002 L65.238772545567457 0.079956590400002 L65.238772545567457 55.795888345100025 L48.388100502667477 55.795888345100025 zM2.999999999967489 53.621608081500000 L2.999999999967464 0.079956590400002 L15.502111515667458 0.079956590400002 L15.502111515667458 28.073814984199998 L2.999999999967464 53.621608081499971 z" />
<glyph unicode="N" horiz-adv-x="62.010381785528189" d="M45.143733867754491 55.784797135500000 L45.143733867754520 21.526019926899949 L19.857493547054503 55.784797135500014 L2.999999999954468 55.784797135500014 L45.143733867754520 0.046310407200053 L59.010381785554443 0.046310407200053 L59.010381785554443 55.784797135500014 L45.143733867754520 55.784797135500014 zM2.999999999954486 50.346895991300002 L2.999999999954468 0.046310407200053 L16.866647917754506 0.046310407200053 L16.866647917754506 32.129927158100031 L2.999999999954468 50.346895991300016 z" />
<glyph unicode="O" horiz-adv-x="66.028389981807521" d="M35.519135454855466 10.285567085800000 C39.294915487955507 10.555265659599968 42.800996947255442 12.443155676200035 45.497982685155478 15.409839987900000 C48.734365570755415 18.915921447200049 50.352557013455510 22.961400054099954 50.352557013455510 28.085672956200028 C50.352557013455510 32.940247284499947 48.734365570755415 37.255424465200008 45.497982685155478 40.761505924499943 C42.800996947255442 43.728190236299952 39.294915487955507 45.616080252799975 35.519135454855416 45.885778826600017 L35.519135454855416 56.404023204599980 C43.070695521055484 56.134324630799995 49.543461292055497 53.437338892900016 54.667734194155457 48.313065990799998 C60.331404243855502 42.919094514900053 63.028389981855469 36.176630169999953 63.028389981855469 28.085672956200028 C63.028389981855469 19.994715742399990 60.331404243855502 13.252251397600048 54.667734194155457 7.858279921700046 C49.543461292055497 2.734007019599971 43.070695521055484 0.037021281600005 35.519135454855416 -0.232677292200037 L35.519135454855416 10.285567085800039 zM32.509254526955466 -0.208243820700000 C24.957694460755476 0.061454753099952 18.484928689655419 2.758440490999988 13.360655787655503 7.882713393099948 C7.696985737955458 13.276684868999951 4.999999999955492 20.019149213800006 4.999999999955492 28.110106427600044 C4.999999999955492 36.201063641500014 7.696985737955458 42.943527986299955 13.360655787655503 48.337499462200014 C18.484928689655419 53.461772364300032 24.957694460755476 56.158758102200011 32.509254526955431 56.428456675999996 L32.509254526955431 45.910212298000033 C28.733474493855454 45.640513724300035 25.227393034555519 43.752623707699968 22.530407296655483 40.785939396000003 C19.294024411055432 37.279857936600024 17.675832968355451 32.964680755899963 17.675832968355451 28.110106427600044 C17.675832968355451 22.985833525499970 19.294024411055432 18.940354918599951 22.530407296655483 15.434273459300016 C25.227393034555519 12.467589147600052 28.733474493855454 10.579699130999984 32.509254526955431 10.310000557200055 L32.509254526955431 -0.208243820699977 z" />
<glyph unicode="P" horiz-adv-x="52.083691559005814" d="M49.083691558977485 35.649103187000001 C49.083691558977449 28.846064366200039 47.178840689177520 23.947876415199971 43.097017396677444 20.682417781200002 C39.287315656977427 17.416959147200032 33.028519941877477 15.784229830200047 24.864873356877442 15.784229830200047 L20.510928511477491 15.784229830200047 L20.510928511477491 26.669091943500007 L25.681238015377435 26.669091943500007 C29.763061307877511 26.669091943500007 32.756398388977487 27.485456601999999 34.117006153177527 29.118185918999984 C35.477613917377454 30.750915235999969 36.293978575877446 33.200009211499946 36.293978575877446 36.465467845500029 C36.293978575877446 39.730926479499999 35.205492364477465 41.907898902200031 33.300641494677535 43.268506666300027 C31.395790624877495 44.629114430499953 28.402453543677471 45.173357536200001 24.320630251177509 45.173357536200001 L20.510928511477491 45.173357536200001 L20.510928511477491 55.786098096700016 L24.592751803977453 55.786098096700016 C33.300641494677535 55.786098096700016 39.559437209877530 54.153368779700031 43.369138949477502 50.887910145700005 C47.178840689177520 47.622451511699978 49.083691558977449 42.452142007800035 49.083691558977449 35.649103187000037 zM17.517591430377486 15.512108277299999 L17.517591430377511 0.001179765799975 L4.999999999977522 0.001179765799975 L4.999999999977522 55.786098096700016 L17.517591430377511 55.786098096700016 L17.517591430377511 45.173357536200001 L17.517591430377511 26.396970390699948 L17.517591430377511 15.512108277299944 z" />
<glyph unicode="Q" horiz-adv-x="63.76403459710663" d="M47.096708643582801 4.084041533800000 L55.672285712482804 -0.471733783999980 L50.312550044382775 -9.315297636299988 L33.429382690082790 -0.203747000599947 L33.429382690082790 10.515724335499954 C37.600492037582754 10.834146984400036 40.983448490782749 12.710054468200042 43.663316324882786 15.657909085599954 C46.879157725682845 19.141737269899977 48.436642560582769 23.278218207800023 48.436642560582769 28.404595502100051 C48.436642560582769 33.345036790199970 46.879157725682845 37.465710272199999 43.663316324882786 40.949538456500022 C40.715461707382829 43.897393073900048 37.449184441082835 45.874172288700038 33.429382690082790 46.142159072099957 L33.429382690082790 56.458143484199979 C40.933012625282814 56.190156700800003 47.096708643582829 53.661596463299986 52.456444311582814 48.569847578599990 C57.816179979682843 43.210111910599949 60.764034597082755 36.242455542099947 60.764034597082755 28.202852040000039 C60.764034597082755 20.163248537999948 58.084166763082763 13.463578952899979 52.456444311582814 8.103843284899995 C50.848523611182841 6.495922584399977 48.972616127382835 5.155988667400038 47.096708643582829 4.084041533800018 zM11.357757969582796 48.320792247800000 C16.480254789582787 53.443289067899968 22.950777088682813 56.139340025799982 30.499719770782818 56.408945121600027 L30.499719770782818 46.163951481500021 C26.725248429782837 45.894346385700032 23.220382184482801 44.007110715200042 20.524331226482801 41.041454661499984 C17.289070076982753 37.536588416199947 15.671439502282752 33.222906883499945 15.671439502282752 28.370015159199966 C15.671439502282752 23.247518339099997 17.289070076982753 19.203441902300028 20.524331226482801 15.698575656999992 C23.220382184482801 12.732919603200003 26.725248429782837 10.845683932700013 30.499719770782818 10.576078836900024 L30.499719770782818 -0.208124994799959 C22.950777088682813 0.061480101000029 16.480254789582787 2.757531058899986 11.357757969582750 7.880027878999954 C5.696050957882804 13.272129794799980 2.999999999982847 20.012257189599950 2.999999999982847 28.100410063399977 C2.999999999982847 36.188562937200004 5.696050957882804 42.928690331999974 11.357757969582750 48.320792247800000 z" />
<glyph unicode="R" horiz-adv-x="56.419709170963699" d="M17.512958549764019 17.999685717700000 L17.512958549764065 0.046310407200053 L4.999999999964032 0.046310407200053 L4.999999999964032 55.810582205199978 L17.512958549764065 55.810582205199978 L17.512958549764065 45.201769521700044 L17.512958549764065 28.608498401300039 L17.512958549764065 17.999685717700004 zM53.419709170964019 0.046310407200000 L38.186542240764041 0.046310407200053 L25.945604528964012 17.727664879700001 L20.505187768263980 17.727664879700001 L20.505187768263980 28.608498401300039 L26.489646205064062 28.608498401300039 C30.841979613763968 28.608498401300039 33.562187994064018 29.424560915399979 35.466333860364060 30.784665105599970 C36.826438050564050 32.144769295799961 37.642500564663990 34.320936000100005 37.642500564663990 37.313165218499989 C37.642500564663990 40.305394437000018 36.826438050564050 42.481561141299949 35.194313022364057 43.569644493400006 C33.562187994064018 44.657727845599993 30.841979613763968 45.201769521700044 26.761667043163996 45.201769521700044 L20.777208606263983 45.201769521700044 L20.777208606263983 55.810582205199978 L26.217625367064059 55.810582205199978 C34.650271346264006 55.810582205199978 40.906750621164022 54.450478014999987 44.715042353664060 51.730269634600006 C48.251313248264026 48.738040416200022 50.155459114464023 44.113686169499942 50.155459114464023 37.585186056600037 C50.155459114464023 28.608498401300039 46.619188219963988 22.896060802400029 39.546646430964032 20.175852422099979 L53.419709170964055 0.046310407200053 z" />
<glyph unicode="S" horiz-adv-x="48.846183839017598" d="M45.846183839043235 16.365722128700000 C45.846183839043235 11.371381681199978 44.006163674143224 7.428481327900045 40.326123344443246 4.537021068799959 C38.486103179543235 2.697000903999992 36.120362967543244 1.645560809800031 33.491762732043227 0.856980739099981 L33.491762732043227 15.840002081600005 C33.491762732043227 17.680022246399972 32.703182661443222 18.731462340699977 31.388882543643188 19.782902434900052 C30.074582425843271 20.834342529100013 27.445982190343255 21.622922599700019 23.503081837043208 22.674362693899980 C17.194441271843214 24.251522835299966 12.725820871443187 26.091543000100046 9.834360612343215 28.457283212100037 C6.942900353243243 30.823023424100029 5.365740211943187 34.503063753800006 5.365740211943187 39.760264224800039 C5.365740211943187 45.017464695900003 7.205760376843198 48.960365049199993 10.885800706543176 51.588965284700009 C12.725820871443187 53.166125426000008 15.091561083443178 54.217565520199969 17.720161318943195 55.006145590900019 L17.720161318943195 40.023124248399995 C17.720161318943195 38.445964107100053 18.508741389543200 37.131663989300023 19.823041507343230 36.343083918700017 C21.137341625143261 35.291643824400012 24.554521931243283 34.240203730200051 29.548862378743177 33.188763635999976 C34.543202826243188 31.874463518299990 38.486103179543235 30.034443353399979 41.377563438643207 27.405843117899963 C44.269023697743179 24.777242882399946 45.583323815443279 21.097202552600038 45.846183839043235 16.365722128699986 zM30.337442449443230 0.331260692000000 C29.023142331643196 0.068400668400045 27.708842213943210 0.068400668400045 26.131682072643269 0.068400668400045 C17.457301295343239 0.068400668400045 9.834360612343215 3.222720951099973 3.000000000043240 9.531361516299967 L10.097220635943284 18.468602317100022 C15.880141154043184 13.474261869600014 21.137341625143261 10.845661634099997 26.131682072643269 10.845661634099997 C27.708842213943210 10.845661634099997 29.286002355243266 11.108521657600022 30.337442449443227 11.634241704700003 L30.337442449443227 0.331260692000001 zM20.874481601543231 55.531865637999999 C21.925921695743266 55.794725661500024 23.240221813543183 55.794725661500024 24.554521931243283 55.794725661500024 C28.234562261043191 55.794725661500024 31.651742567243257 55.269005614399987 35.331782896943238 53.954705496700001 C39.011823226643216 52.640405378900027 42.166143509243213 51.063245237599972 44.794743744843274 48.697505025599980 L38.748963203143191 40.023124248399995 C34.017482779143208 43.440304554599948 29.286002355243266 45.280324719400028 24.291661907743258 45.280324719400028 C22.714501766443203 45.280324719400028 21.663061672243241 45.017464695900003 20.874481601543192 44.491744648800022 L20.874481601543192 55.531865637999999 z" />
<glyph unicode="T" horiz-adv-x="52.284532625401923" d="M20.854956125156633 41.880329937399999 L33.429576500256651 41.880329937400006 L33.429576500256651 0.056049124499964 L20.854956125156612 0.056049124499964 L20.854956125156612 41.880329937400006 zM4.999999999956636 55.821756874999998 L4.999999999956692 44.887304374899941 L20.854956125156612 44.887304374899941 L33.429576500256651 44.887304374899941 L49.284532625356640 44.887304374899941 L49.284532625356640 55.821756875000005 L4.999999999956692 55.821756875000005 z" />
<glyph unicode="U" horiz-adv-x="56.663141387819138" d="M51.663141387847858 55.824112177799996 L51.663141387847851 24.680582293799944 C51.663141387847851 16.826996496900051 49.225821657747908 10.598290520100022 44.892808804347830 6.265277666600014 C43.267928984247852 4.640397846599967 41.372235860947832 3.286331329900008 39.205729434147862 2.203078116500023 L39.205729434147862 25.222208900400005 L39.205729434147862 55.824112177799975 L51.663141387847851 55.824112177799975 zM35.955969794147862 1.119824903200000 C33.518650064047826 0.578198296499977 30.810517030647908 0.036571689799985 27.831570693947903 0.036571689799985 C21.061238110447881 0.036571689799985 15.103345436947826 2.203078116500023 10.770332583447818 6.536090970000032 C6.166506426747880 10.869103823399996 4.000000000047841 17.097809800200025 4.000000000047841 24.951395597100031 L4.000000000047841 55.824112177799975 L16.457411953647899 55.824112177799975 L16.457411953647899 25.222208900400005 C16.457411953647899 20.618382743699954 17.269851863647865 17.097809800200025 19.436358290347904 14.660490070200012 C21.602864717047829 12.223170340099955 24.310997750447861 10.869103823399996 27.831570693947903 10.869103823399996 C31.081330333947882 10.869103823399996 34.060276670747818 12.223170340099955 35.955969794147883 14.660490070200012 L35.955969794147883 1.119824903199969 z" />
<glyph unicode="V" horiz-adv-x="64.209651816232864" d="M30.472779595558904 20.718897033499999 L16.328378219558896 55.807892754500017 L2.999999999958856 55.807892754500017 L23.672586626358918 4.126426188699952 L30.472779595558915 20.718897033499957 zM47.609265877858903 55.807892754500003 L25.304632938958900 0.046310407200053 L38.905018877258854 0.046310407200053 L61.209651816258898 55.807892754500017 L47.609265877858903 55.807892754500017 z" />
<glyph unicode="W" horiz-adv-x="87.590927524477053" d="M71.264409362149166 55.800110882200002 L60.113649267149164 23.707679389299983 L50.322737964149134 55.800110882199988 L39.715917386049206 55.800110882199988 L22.309852847449157 0.046310407200053 L34.548491976149172 0.046310407200053 L45.155312554349145 34.314499967400025 L56.034102890949136 0.046310407200053 L65.281074677049190 0.046310407200053 L84.590927524449143 55.800110882199988 L71.264409362149166 55.800110882199988 zM26.933338740549175 25.067528181299998 L16.326518162349181 55.800110882199988 L3.000000000049205 55.800110882199988 L20.678034296949228 4.941766058600024 L26.933338740549154 25.067528181299963 z" />
<glyph unicode="X" horiz-adv-x="59.302242048548891" d="M37.537677245718051 28.873033147699999 L54.670540761318051 55.796104386500019 L40.529129605618067 55.796104386500019 L3.000000000018044 0.046310407200053 L17.413361370318025 0.046310407200053 L29.107220595218077 18.538924995399952 L41.073030034718016 0.046310407200053 L56.302242048518082 0.046310407200053 L37.537677245718072 28.873033147699971 zM27.747469522518053 41.654693230800000 L18.501162228418107 55.796104386500019 L3.815850643618059 55.796104386500019 L20.132863515618023 30.232784220400049 L27.747469522517999 41.654693230800035 z" />
<glyph unicode="Y" horiz-adv-x="56.855692022478323" d="M26.660134791227080 36.488357097100000 L15.509956326427027 55.797202731299990 L3.000000000027125 55.797202731299990 L20.405156628027111 25.338178632199970 L26.660134791227119 36.488357097099993 zM41.345735696127079 55.797202731299997 L22.308845634227122 22.074711764499966 L22.308845634227122 0.046310407200053 L34.818801960627027 0.046310407200053 L34.818801960627027 22.074711764499966 L53.855692022527094 55.797202731299990 L41.345735696127079 55.797202731299990 z" />
<glyph unicode="Z" horiz-adv-x="53.406390128034317" d="M50.406390128002407 55.784693498499998 L41.977659026402449 55.784693498500019 L36.267873441502417 55.784693498500019 L5.000000000002416 0.046310407200053 L9.894101930002449 0.046310407200053 L18.866622134902428 0.046310407200053 L50.406390128002414 55.784693498500019 zM22.401251306502409 0.046310407200000 L48.503128266402456 0.046310407200053 L48.503128266402456 10.922092473800035 L28.654825994802451 10.922092473800035 L22.401251306502360 0.046310407200053 zM32.461349718202406 55.784693498499998 L5.000000000002416 55.784693498500019 L5.000000000002416 44.908911431900037 L26.479669581502463 44.908911431900037 L32.461349718202456 55.784693498500019 z" />
<glyph unicode="a" horiz-adv-x="66.212969804096048" d="M56.160538932345780 -375.199999999999989 L56.160538932345737 -375.200000000000045 L56.160538932345737 -375.200000000000045 L56.160538932345737 -375.200000000000045 zM41.698072990345786 12.087166299600000 L36.976292201045801 23.008850560000042 L29.318795529745792 23.008850560000042 L24.617544222245790 12.087166299599971 L41.698072990345743 12.087166299599971 zM1.343917678945786 -215.716397431300010 L1.343917678945793 -215.716397431300038 L1.343917678945793 -215.716397431300038 L1.343917678945793 -215.716397431300038 zM39.131887778845787 55.794432823000001 L27.081082025345843 55.794432823000022 L3.000000000045823 0.036360546100013 L16.241515691645766 0.036360546100013 L16.877929624145743 1.514483228000017 L21.435474559845836 12.087166299599971 L21.435474559845836 12.087166299599971 L33.157808606245801 39.206611615399993 L49.971454112445720 0.036360546100013 L63.212969804145821 0.036360546100013 L39.131887778845801 55.794432823000022 z" />
<glyph unicode="b" horiz-adv-x="50.491995249819738" d="M-32.524989216833120 -390.516397431299993 L-32.524989216833163 -390.516397431299993 L-32.524989216833163 -390.516397431299993 L-32.524989216833163 -390.516397431299993 zM15.446273643166890 0.062983170300000 L2.999999999966846 0.062983170299958 L2.999999999966846 55.790330755900015 L15.446273643166862 55.790330755900015 L15.446273643166862 45.266550734699990 L15.446273643166862 33.232240010599980 L15.446273643166862 23.420032303999960 L15.446273643166862 10.586763191500040 L15.446273643166862 0.062983170299958 zM47.491995249866889 15.542801944100001 C47.491995249866861 11.660363525799994 46.168720419166831 8.227339200999950 43.509687032966823 5.256212694400006 C40.426207003066949 1.798220919900018 35.058205331566953 0.075466895100021 27.405682018366903 0.075466895100021 L18.617139746766881 0.075466895100021 L18.617139746766881 10.599246916299990 L23.972657693566859 10.599246916299990 C27.530519266566827 10.599246916299990 30.202036377466854 11.036177284899964 31.987209026366870 11.910038022199956 C33.772381675266885 12.783898759400017 34.658726137366941 14.519136508999964 34.658726137366941 17.090783821400009 C34.658726137366941 19.674914858700049 33.709963051266911 21.372701433900033 31.824920603766870 22.196627271800025 C29.939878156266943 23.020553109799948 26.918816750466860 23.432516028800023 22.774220111066867 23.432516028800023 L18.604656021966932 23.432516028800023 L18.604656021966932 33.232240010599980 L21.338591756966863 33.232240010599980 C24.784099806666902 33.232240010599980 27.355747119066947 33.594268030299986 29.028566244666919 34.343291519300010 C30.701385370166847 35.079831283600015 31.537794932966946 36.690231785000037 31.537794932966946 39.162009298899989 C31.537794932966946 41.633786812800054 30.763803994266866 43.269154763900019 29.228305841666881 44.068113152199999 C27.680323964366877 44.867071540499978 25.083709202266888 45.266550734699990 21.413494105866832 45.266550734699990 L18.604656021966932 45.266550734699990 L18.604656021966932 55.790330755900015 L24.684230008166921 55.790330755900015 C28.466798627866908 55.790330755900015 31.712567080366895 55.340916662499978 34.458986540266935 54.442088475600031 C37.192922275366911 53.530776563900019 39.252736870266901 52.307371531800015 40.638430324966905 50.771873379199974 C43.135175288466868 47.900616671199998 44.383547770266816 44.654848218600023 44.383547770266816 41.047051746400030 C44.383547770266816 36.690231785000037 42.985370590666818 33.444463332500050 40.164048781866924 31.322230113500041 C39.202801970966831 30.573206624399972 38.541164555666839 30.111308806199986 38.166652811066953 29.924052933900043 C37.792141066566884 29.749280786499980 37.130503651266892 29.437187666000000 36.169256840266868 29.012741022199975 C39.627248614766856 28.263717533199952 42.373668074566851 26.703251930999954 44.420998944666891 24.343827940499978 C46.468329814766932 21.971920225100007 47.491995249866861 19.038244892999955 47.491995249866861 15.542801944100006 z" />
<glyph unicode="c" horiz-adv-x="58.794383877981986" d="M34.330650288289249 55.772602514500001 C42.916143724189233 55.504305844599969 49.891857140789234 52.284745806099977 55.794383877989226 45.577329059300041 L48.282077121589232 36.991835623500037 C44.525923743389235 41.821175681100044 39.964880355589294 43.967549040100039 34.330650288289299 44.235845710000035 L34.330650288289299 55.772602514500022 zM47.667615101489247 18.284343405000001 L55.353086144589220 10.333856118999961 C49.522728801489230 3.708450047399992 42.367290244189299 0.263238890099956 34.416802958189301 -0.001777352699946 L34.416802958189301 11.393921090500044 C39.982144058389231 11.658937333399990 44.222403944189246 14.044083519200058 47.667615101489282 18.284343404999959 zM31.424009268689247 -0.001777352700000 C24.289526766189233 0.526702832599995 17.947764541689203 3.169103759499990 13.191442873289198 7.925425427899995 C7.642400926889259 13.210227281600055 4.999999999989264 19.816229598799964 4.999999999989264 27.743432379400019 C4.999999999989264 35.670635159999961 7.642400926889259 42.276637477199984 13.191442873289198 47.825679423599979 C18.212004634389196 52.582001091999985 24.289526766189233 55.224402018899980 31.159769175989204 55.752882204199977 L31.159769175989204 44.126318126000001 C27.724647971089276 43.597837940600016 24.818006951489288 42.276637477199984 22.175606024689223 39.898476642999981 C19.004724912389243 36.991835623500037 17.683524448989210 33.028234233200010 17.683524448989210 28.007672472100012 C17.683524448989210 22.987110711000014 19.004724912389243 19.023509320699986 22.175606024689223 15.852628208500050 C24.818006951489288 13.210227281600055 27.724647971089276 11.624786725500030 31.424009268689197 11.360546632800038 L31.424009268689197 -0.001777352699946 z" />
<glyph unicode="d" horiz-adv-x="59.749765715528042" d="M18.513519181948652 0.081827420800000 L6.000000000048672 0.081827420799982 L6.000000000048672 55.848597687999984 L18.513519181948610 55.848597687999984 L18.513519181948610 44.967276660200014 L18.513519181948610 11.235181474199976 L18.513519181948610 0.081827420799982 zM56.749765715548655 28.505849509200001 C56.749765715548634 19.763180795800054 54.017681742548703 12.932970863399987 48.826722193948640 7.742011314800038 C43.635762645348692 2.551051766199976 35.712719123848629 0.092176190599957 25.057591629348636 0.092176190599957 L21.505882464548691 0.092176190599957 L21.505882464548691 11.020512082400046 L26.423633615848658 11.020512082400046 C32.161009959048684 11.020512082400046 36.532344315748688 12.386554068800024 39.537636685948669 15.391846439100050 C42.542929056248695 18.397138809300031 44.182179439948655 22.495264768700054 44.182179439948655 27.959432714599984 C44.182179439948655 33.423600660500028 42.542929056248695 37.521726619900051 39.537636685948669 40.527018990199963 C36.259135918448706 43.532311360399945 31.614593164448607 44.898353346899967 25.330800026648618 44.898353346899967 L21.505882464548691 44.898353346899967 L21.505882464548691 55.826689238600011 L25.604008423948599 55.826689238600011 C35.712719123848629 55.826689238600011 43.362554248148641 53.367813662999993 48.553513796648659 48.450062511700025 C54.017681742548703 43.532311360399945 56.749765715548634 36.975309825299973 56.749765715548634 28.505849509199948 z" />
<glyph unicode="e" horiz-adv-x="49.102518673471764" d="M20.515520293920410 33.236251646500001 L42.291689127620451 33.236251646500023 L42.291689127620451 22.620369340099955 L20.515520293920439 22.620369340099955 L20.515520293920439 33.236251646500023 zM20.515520293920410 11.187880702399999 L17.521297079320355 11.187880702399980 L17.521297079320355 22.620369340099955 L17.521297079320355 33.236251646500023 L17.521297079320355 44.668740284099954 L17.521297079320355 44.668740284099954 L20.515520293920439 44.668740284099954 L20.515520293920439 44.668740284099954 L45.285912342220421 44.668740284099954 L45.285912342220421 55.829026811400013 L5.000000000020371 55.829026811400013 L5.000000000020371 0.027594175199965 L46.102518673520443 0.027594175199965 L46.102518673520443 11.187880702399980 L20.515520293920439 11.187880702399980 z" />
<glyph unicode="f" horiz-adv-x="47.328898583485909" d="M21.494661129468241 32.970409965100004 L42.969717782668297 32.970409965099975 L42.969717782668297 22.096963558400034 L21.494661129468298 22.096963558400034 L21.494661129468298 32.970409965099975 zM5.999999999968242 55.804647418999998 L5.999999999968239 0.078234584899974 L18.504463367668293 0.078234584899974 L18.504463367668293 22.096963558400034 L18.504463367668293 32.970409965099975 L18.504463367668293 44.659364852200042 L18.504463367668293 44.931201012400038 L44.328898583468188 44.931201012400038 L44.328898583468188 55.804647418999991 L5.999999999968239 55.804647418999991 z" />
<glyph unicode="g" horiz-adv-x="58.502366348220718" d="M40.430979532302658 11.932853169400000 L40.430979532302622 0.563210483599960 C38.051286877102662 0.298800188600012 35.671594222002632 0.034389893599950 33.291901566802672 0.034389893599950 C25.359592716302650 0.034389893599950 18.484925045902692 2.678492843799972 13.196719145502648 7.966698744099972 C7.644102950202701 13.254904644500016 5.000000000002679 19.865162019900026 5.000000000002679 27.797470870400048 C5.000000000002679 35.729779720899955 7.644102950202701 42.340037096299966 13.196719145502648 47.892653291700015 C18.749335340902640 53.180859192000014 25.359592716302650 55.824962142199979 33.027491271802610 55.824962142199979 C40.959800122302632 55.824962142199979 47.570057497702642 53.180859192000014 53.387083988102695 48.157063586700019 L47.041236907702633 39.167113556100048 C44.661544252502672 41.282395916200016 42.546261892402704 42.604447391300027 40.430979532302622 43.397678276400029 C38.315697172102610 44.190909161399986 36.200414812002641 44.719729751500040 33.820722156802681 44.719729751500040 C29.325747141502639 44.719729751500040 25.359592716302650 43.133267981399968 22.186669176102619 39.960344441200050 C19.013745635902701 36.787420901000019 17.427283865802629 32.556856180700038 17.427283865802629 27.533060575399986 C17.427283865802629 22.509264970000004 19.013745635902701 18.543110544800015 21.922258881102671 15.370187004599984 C25.095182421302702 12.461673759400014 28.532516256502682 10.875211989300055 32.763080976802662 10.875211989300055 C35.671594222002632 10.875211989300055 38.051286877102662 11.139622284300003 40.166569237202630 11.932853169400005 L40.430979532302622 11.932853169400005 zM43.339492777402654 28.326291460400000 L55.502366348202663 28.326291460399943 L55.502366348202663 9.024339924200035 C52.329442808002632 5.322595793899950 48.098878087702651 2.678492843799972 43.339492777402661 1.356441368699961 L43.339492777402661 13.254904644500016 L43.339492777402661 28.061881165399996 L43.339492777402661 28.326291460399943 z" />
<glyph unicode="h" horiz-adv-x="61.072607879925108" d="M19.516415968120306 32.677134319700002 L19.516415968120260 55.805294260700009 L7.000000000020282 55.805294260700009 L7.000000000020282 0.025614402999963 L19.516415968120260 0.025614402999963 L19.516415968120260 0.025614402999963 L19.516415968120260 22.065390346799973 L19.516415968120260 32.677134319700031 zM41.556191911820306 55.805294260700002 L41.556191911820335 32.677134319700031 L22.509471960420274 32.677134319700031 L22.509471960420274 22.065390346799973 L41.556191911820335 22.065390346799973 L41.556191911820335 0.025614402999963 L54.072607879920312 0.025614402999963 L54.072607879920312 55.805294260700009 L41.556191911820335 55.805294260700009 z" />
<glyph unicode="i" horiz-adv-x="18.531155085135904" d="M3.000000000003733 55.855056670099998 L15.531155085103752 55.855056670099998 L15.531155085103752 0.009691616700024 L3.000000000003684 0.009691616700024 L3.000000000003684 55.855056670099998 z" />
<glyph unicode="j" horiz-adv-x="44.746041556165409" d="M41.746041556125896 55.822060785100000 L41.746041556125888 19.805215883799974 C41.746041556125888 13.035132255699978 40.121221485425863 8.160672043499972 36.600777998825848 4.911031901999991 C34.434351237825936 3.015408486200045 31.997121131725880 1.661391760600054 29.289087680525899 0.848981725200019 L29.289087680525899 18.992805848400053 C29.289087680525899 18.992805848400053 29.289087680525899 19.263609193499974 29.289087680525899 19.263609193499974 L29.289087680525899 45.260730325299960 L29.289087680525899 55.822060785100007 L41.746041556125888 55.822060785100007 zM26.039447539025897 0.307375034900000 C25.227037503725928 0.036571689799985 24.143824123225858 0.036571689799985 23.331414087825937 0.036571689799985 C16.832133804925906 0.036571689799985 10.874460212225944 2.473801795900044 6.000000000025938 7.619065353300016 L12.228476937825935 16.555575742299993 C15.748920424425950 13.035132255699978 19.269363911025852 11.139508839799987 22.789807397625868 11.139508839799987 C24.143824123225858 11.139508839799987 25.227037503725928 11.410312184999952 26.039447539025918 11.951918875200022 L26.039447539025918 0.307375034900019 z" />
<glyph unicode="k" horiz-adv-x="58.122076735198597" d="M18.504516599339048 16.120229146000000 L18.504516599339091 15.848391828600029 L18.504516599339091 0.081827420799982 L6.000000000039073 0.081827420799982 L6.000000000039073 55.808477482999990 L18.504516599339091 55.808477482999990 L18.504516599339091 32.974142823400030 L18.504516599339091 32.974142823400030 L18.504516599339091 16.120229146000042 zM43.639031507739048 16.455399870000001 C48.560336605239023 9.073442223800043 52.661424186439000 3.605325448800045 55.122076735238998 0.051049545100000 L40.631567281539070 0.051049545100000 L21.766564407839006 25.204386709999994 L21.766564407839006 36.414026098699992 L39.537943926539093 55.825840649800000 L54.848670896439067 55.825840649800000 L32.702797957839003 31.219315162500038 C34.616638829039026 28.485256775000039 38.170914732739071 23.563951677499972 43.639031507739070 16.455399869999951 z" />
<glyph unicode="l" horiz-adv-x="49.172391398470168" d="M19.510751912247432 11.232714994700000 L19.510751912247446 55.836265290600011 L7.000000000047425 55.836265290600011 L7.000000000047425 0.081827420799982 L19.510751912247446 0.081827420799982 L19.510751912247446 11.232714994700018 zM22.502453456447434 11.232714994700000 L43.172391398447431 11.232714994700018 L43.172391398447431 0.081827420799982 L22.502453456447387 0.081827420799982 L22.502453456447387 11.232714994700018 z" />
<glyph unicode="m" horiz-adv-x="72.238772545532228" d="M2.999999999967489 53.621608081500000 L2.999999999967464 0.079956590400002 L15.502111515667458 0.079956590400002 L15.502111515667458 28.073814984199998 L2.999999999967464 53.621608081499971 zM48.388100502667491 55.795888345100003 L33.983493756267514 25.355964654699960 L19.850672042867451 55.795888345100025 L5.174280263567518 55.795888345100025 L30.450288327967520 4.700302150499965 L37.788484217567522 4.700302150499965 L52.736661029867470 35.140225840900030 L52.736661029867470 0.079956590400002 L65.238772545567457 0.079956590400002 L65.238772545567457 55.795888345100025 L48.388100502667477 55.795888345100025 z" />
<glyph unicode="n" horiz-adv-x="62.010381785528189" d="M2.999999999954486 50.346895991300002 L2.999999999954468 0.046310407200053 L16.866647917754506 0.046310407200053 L16.866647917754506 32.129927158100031 L2.999999999954468 50.346895991300016 zM45.143733867754491 55.784797135500000 L45.143733867754520 21.526019926899949 L19.857493547054503 55.784797135500014 L2.999999999954468 55.784797135500014 L45.143733867754520 0.046310407200053 L59.010381785554443 0.046310407200053 L59.010381785554443 55.784797135500014 L45.143733867754520 55.784797135500014 z" />
<glyph unicode="o" horiz-adv-x="66.028389981807521" d="M32.509254526955466 -0.208243820700000 C24.957694460755476 0.061454753099952 18.484928689655419 2.758440490999988 13.360655787655503 7.882713393099948 C7.696985737955458 13.276684868999951 4.999999999955492 20.019149213800006 4.999999999955492 28.110106427600044 C4.999999999955492 36.201063641500014 7.696985737955458 42.943527986299955 13.360655787655503 48.337499462200014 C18.484928689655419 53.461772364300032 24.957694460755476 56.158758102200011 32.509254526955431 56.428456675999996 L32.509254526955431 45.910212298000033 C28.733474493855454 45.640513724300035 25.227393034555519 43.752623707699968 22.530407296655483 40.785939396000003 C19.294024411055432 37.279857936600024 17.675832968355451 32.964680755899963 17.675832968355451 28.110106427600044 C17.675832968355451 22.985833525499970 19.294024411055432 18.940354918599951 22.530407296655483 15.434273459300016 C25.227393034555519 12.467589147600052 28.733474493855454 10.579699130999984 32.509254526955431 10.310000557200055 L32.509254526955431 -0.208243820699977 zM35.519135454855466 10.285567085800000 C39.294915487955507 10.555265659599968 42.800996947255442 12.443155676200035 45.497982685155478 15.409839987900000 C48.734365570755415 18.915921447200049 50.352557013455510 22.961400054099954 50.352557013455510 28.085672956200028 C50.352557013455510 32.940247284499947 48.734365570755415 37.255424465200008 45.497982685155478 40.761505924499943 C42.800996947255442 43.728190236299952 39.294915487955507 45.616080252799975 35.519135454855416 45.885778826600017 L35.519135454855416 56.404023204599980 C43.070695521055484 56.134324630799995 49.543461292055497 53.437338892900016 54.667734194155457 48.313065990799998 C60.331404243855502 42.919094514900053 63.028389981855469 36.176630169999953 63.028389981855469 28.085672956200028 C63.028389981855469 19.994715742399990 60.331404243855502 13.252251397600048 54.667734194155457 7.858279921700046 C49.543461292055497 2.734007019599971 43.070695521055484 0.037021281600005 35.519135454855416 -0.232677292200037 L35.519135454855416 10.285567085800039 z" />
<glyph unicode="p" horiz-adv-x="52.083691559005814" d="M17.517591430377486 15.512108277299999 L17.517591430377511 0.001179765799975 L4.999999999977522 0.001179765799975 L4.999999999977522 55.786098096700016 L17.517591430377511 55.786098096700016 L17.517591430377511 45.173357536200001 L17.517591430377511 26.396970390699948 L17.517591430377511 15.512108277299944 zM49.083691558977485 35.649103187000001 C49.083691558977449 28.846064366200039 47.178840689177520 23.947876415199971 43.097017396677444 20.682417781200002 C39.287315656977427 17.416959147200032 33.028519941877477 15.784229830200047 24.864873356877442 15.784229830200047 L20.510928511477491 15.784229830200047 L20.510928511477491 26.669091943500007 L25.681238015377435 26.669091943500007 C29.763061307877511 26.669091943500007 32.756398388977487 27.485456601999999 34.117006153177527 29.118185918999984 C35.477613917377454 30.750915235999969 36.293978575877446 33.200009211499946 36.293978575877446 36.465467845500029 C36.293978575877446 39.730926479499999 35.205492364477465 41.907898902200031 33.300641494677535 43.268506666300027 C31.395790624877495 44.629114430499953 28.402453543677471 45.173357536200001 24.320630251177509 45.173357536200001 L20.510928511477491 45.173357536200001 L20.510928511477491 55.786098096700016 L24.592751803977453 55.786098096700016 C33.300641494677535 55.786098096700016 39.559437209877530 54.153368779700031 43.369138949477502 50.887910145700005 C47.178840689177520 47.622451511699978 49.083691558977449 42.452142007800035 49.083691558977449 35.649103187000037 z" />
<glyph unicode="q" horiz-adv-x="63.76403459710663" d="M11.357757969582796 48.320792247800000 C16.480254789582787 53.443289067899968 22.950777088682813 56.139340025799982 30.499719770782818 56.408945121600027 L30.499719770782818 46.163951481500021 C26.725248429782837 45.894346385700032 23.220382184482801 44.007110715200042 20.524331226482801 41.041454661499984 C17.289070076982753 37.536588416199947 15.671439502282752 33.222906883499945 15.671439502282752 28.370015159199966 C15.671439502282752 23.247518339099997 17.289070076982753 19.203441902300028 20.524331226482801 15.698575656999992 C23.220382184482801 12.732919603200003 26.725248429782837 10.845683932700013 30.499719770782818 10.576078836900024 L30.499719770782818 -0.208124994799959 C22.950777088682813 0.061480101000029 16.480254789582787 2.757531058899986 11.357757969582750 7.880027878999954 C5.696050957882804 13.272129794799980 2.999999999982847 20.012257189599950 2.999999999982847 28.100410063399977 C2.999999999982847 36.188562937200004 5.696050957882804 42.928690331999974 11.357757969582750 48.320792247800000 zM47.096708643582801 4.084041533800000 L55.672285712482804 -0.471733783999980 L50.312550044382775 -9.315297636299988 L33.429382690082790 -0.203747000599947 L33.429382690082790 10.515724335499954 C37.600492037582754 10.834146984400036 40.983448490782749 12.710054468200042 43.663316324882786 15.657909085599954 C46.879157725682845 19.141737269899977 48.436642560582769 23.278218207800023 48.436642560582769 28.404595502100051 C48.436642560582769 33.345036790199970 46.879157725682845 37.465710272199999 43.663316324882786 40.949538456500022 C40.715461707382829 43.897393073900048 37.449184441082835 45.874172288700038 33.429382690082790 46.142159072099957 L33.429382690082790 56.458143484199979 C40.933012625282814 56.190156700800003 47.096708643582829 53.661596463299986 52.456444311582814 48.569847578599990 C57.816179979682843 43.210111910599949 60.764034597082755 36.242455542099947 60.764034597082755 28.202852040000039 C60.764034597082755 20.163248537999948 58.084166763082763 13.463578952899979 52.456444311582814 8.103843284899995 C50.848523611182841 6.495922584399977 48.972616127382835 5.155988667400038 47.096708643582829 4.084041533800018 z" />
<glyph unicode="r" horiz-adv-x="56.419709170963699" d="M17.512958549764019 17.999685717700000 L17.512958549764065 0.046310407200053 L4.999999999964032 0.046310407200053 L4.999999999964032 55.810582205199978 L17.512958549764065 55.810582205199978 L17.512958549764065 45.201769521700044 L17.512958549764065 28.608498401300039 L17.512958549764065 17.999685717700004 zM53.419709170964019 0.046310407200000 L38.186542240764041 0.046310407200053 L25.945604528964012 17.727664879700001 L20.505187768263980 17.727664879700001 L20.505187768263980 28.608498401300039 L26.489646205064062 28.608498401300039 C30.841979613763968 28.608498401300039 33.562187994064018 29.424560915399979 35.466333860364060 30.784665105599970 C36.826438050564050 32.144769295799961 37.642500564663990 34.320936000100005 37.642500564663990 37.313165218499989 C37.642500564663990 40.305394437000018 36.826438050564050 42.481561141299949 35.194313022364057 43.569644493400006 C33.562187994064018 44.657727845599993 30.841979613763968 45.201769521700044 26.761667043163996 45.201769521700044 L20.777208606263983 45.201769521700044 L20.777208606263983 55.810582205199978 L26.217625367064059 55.810582205199978 C34.650271346264006 55.810582205199978 40.906750621164022 54.450478014999987 44.715042353664060 51.730269634600006 C48.251313248264026 48.738040416200022 50.155459114464023 44.113686169499942 50.155459114464023 37.585186056600037 C50.155459114464023 28.608498401300039 46.619188219963988 22.896060802400029 39.546646430964032 20.175852422099979 L53.419709170964055 0.046310407200053 z" />
<glyph unicode="s" horiz-adv-x="48.846183839017598" d="M30.337442449443230 0.331260692000000 C29.023142331643196 0.068400668400045 27.708842213943210 0.068400668400045 26.131682072643269 0.068400668400045 C17.457301295343239 0.068400668400045 9.834360612343215 3.222720951099973 3.000000000043240 9.531361516299967 L10.097220635943284 18.468602317100022 C15.880141154043184 13.474261869600014 21.137341625143261 10.845661634099997 26.131682072643269 10.845661634099997 C27.708842213943210 10.845661634099997 29.286002355243266 11.108521657600022 30.337442449443227 11.634241704700003 L30.337442449443227 0.331260692000001 zM20.874481601543231 55.531865637999999 C21.925921695743266 55.794725661500024 23.240221813543183 55.794725661500024 24.554521931243283 55.794725661500024 C28.234562261043191 55.794725661500024 31.651742567243257 55.269005614399987 35.331782896943238 53.954705496700001 C39.011823226643216 52.640405378900027 42.166143509243213 51.063245237599972 44.794743744843274 48.697505025599980 L38.748963203143191 40.023124248399995 C34.017482779143208 43.440304554599948 29.286002355243266 45.280324719400028 24.291661907743258 45.280324719400028 C22.714501766443203 45.280324719400028 21.663061672243241 45.017464695900003 20.874481601543192 44.491744648800022 L20.874481601543192 55.531865637999999 zM45.846183839043235 16.365722128700000 C45.846183839043235 11.371381681199978 44.006163674143224 7.428481327900045 40.326123344443246 4.537021068799959 C38.486103179543235 2.697000903999992 36.120362967543244 1.645560809800031 33.491762732043227 0.856980739099981 L33.491762732043227 15.840002081600005 C33.491762732043227 17.680022246399972 32.703182661443222 18.731462340699977 31.388882543643188 19.782902434900052 C30.074582425843271 20.834342529100013 27.445982190343255 21.622922599700019 23.503081837043208 22.674362693899980 C17.194441271843214 24.251522835299966 12.725820871443187 26.091543000100046 9.834360612343215 28.457283212100037 C6.942900353243243 30.823023424100029 5.365740211943187 34.503063753800006 5.365740211943187 39.760264224800039 C5.365740211943187 45.017464695900003 7.205760376843198 48.960365049199993 10.885800706543176 51.588965284700009 C12.725820871443187 53.166125426000008 15.091561083443178 54.217565520199969 17.720161318943195 55.006145590900019 L17.720161318943195 40.023124248399995 C17.720161318943195 38.445964107100053 18.508741389543200 37.131663989300023 19.823041507343230 36.343083918700017 C21.137341625143261 35.291643824400012 24.554521931243283 34.240203730200051 29.548862378743177 33.188763635999976 C34.543202826243188 31.874463518299990 38.486103179543235 30.034443353399979 41.377563438643207 27.405843117899963 C44.269023697743179 24.777242882399946 45.583323815443279 21.097202552600038 45.846183839043235 16.365722128699986 z" />
<glyph unicode="t" horiz-adv-x="52.284532625401923" d="M20.854956125156633 41.880329937399999 L33.429576500256651 41.880329937400006 L33.429576500256651 0.056049124499964 L20.854956125156612 0.056049124499964 L20.854956125156612 41.880329937400006 zM4.999999999956636 55.821756874999998 L4.999999999956692 44.887304374899941 L20.854956125156612 44.887304374899941 L33.429576500256651 44.887304374899941 L49.284532625356640 44.887304374899941 L49.284532625356640 55.821756875000005 L4.999999999956692 55.821756875000005 z" />
<glyph unicode="u" horiz-adv-x="56.663141387819138" d="M35.955969794147862 1.119824903200000 C33.518650064047826 0.578198296499977 30.810517030647908 0.036571689799985 27.831570693947903 0.036571689799985 C21.061238110447881 0.036571689799985 15.103345436947826 2.203078116500023 10.770332583447818 6.536090970000032 C6.166506426747880 10.869103823399996 4.000000000047841 17.097809800200025 4.000000000047841 24.951395597100031 L4.000000000047841 55.824112177799975 L16.457411953647899 55.824112177799975 L16.457411953647899 25.222208900400005 C16.457411953647899 20.618382743699954 17.269851863647865 17.097809800200025 19.436358290347904 14.660490070200012 C21.602864717047829 12.223170340099955 24.310997750447861 10.869103823399996 27.831570693947903 10.869103823399996 C31.081330333947882 10.869103823399996 34.060276670747818 12.223170340099955 35.955969794147883 14.660490070200012 L35.955969794147883 1.119824903199969 zM51.663141387847858 55.824112177799996 L51.663141387847851 24.680582293799944 C51.663141387847851 16.826996496900051 49.225821657747908 10.598290520100022 44.892808804347830 6.265277666600014 C43.267928984247852 4.640397846599967 41.372235860947832 3.286331329900008 39.205729434147862 2.203078116500023 L39.205729434147862 25.222208900400005 L39.205729434147862 55.824112177799975 L51.663141387847851 55.824112177799975 z" />
<glyph unicode="v" horiz-adv-x="64.209651816232864" d="M47.609265877858903 55.807892754500003 L25.304632938958900 0.046310407200053 L38.905018877258854 0.046310407200053 L61.209651816258898 55.807892754500017 L47.609265877858903 55.807892754500017 zM30.472779595558904 20.718897033499999 L16.328378219558896 55.807892754500017 L2.999999999958856 55.807892754500017 L23.672586626358918 4.126426188699952 L30.472779595558915 20.718897033499957 z" />
<glyph unicode="w" horiz-adv-x="87.590927524477053" d="M26.933338740549175 25.067528181299998 L16.326518162349181 55.800110882199988 L3.000000000049205 55.800110882199988 L20.678034296949228 4.941766058600024 L26.933338740549154 25.067528181299963 zM71.264409362149166 55.800110882200002 L60.113649267149164 23.707679389299983 L50.322737964149134 55.800110882199988 L39.715917386049206 55.800110882199988 L22.309852847449157 0.046310407200053 L34.548491976149172 0.046310407200053 L45.155312554349145 34.314499967400025 L56.034102890949136 0.046310407200053 L65.281074677049190 0.046310407200053 L84.590927524449143 55.800110882199988 L71.264409362149166 55.800110882199988 z" />
<glyph unicode="x" horiz-adv-x="59.302242048548891" d="M27.747469522518053 41.654693230800000 L18.501162228418107 55.796104386500019 L3.815850643618059 55.796104386500019 L20.132863515618023 30.232784220400049 L27.747469522517999 41.654693230800035 zM37.537677245718051 28.873033147699999 L54.670540761318051 55.796104386500019 L40.529129605618067 55.796104386500019 L3.000000000018044 0.046310407200053 L17.413361370318025 0.046310407200053 L29.107220595218077 18.538924995399952 L41.073030034718016 0.046310407200053 L56.302242048518082 0.046310407200053 L37.537677245718072 28.873033147699971 z" />
<glyph unicode="y" horiz-adv-x="56.855692022478323" d="M26.660134791227080 36.488357097100000 L15.509956326427027 55.797202731299990 L3.000000000027125 55.797202731299990 L20.405156628027111 25.338178632199970 L26.660134791227119 36.488357097099993 zM41.345735696127079 55.797202731299997 L22.308845634227122 22.074711764499966 L22.308845634227122 0.046310407200053 L34.818801960627027 0.046310407200053 L34.818801960627027 22.074711764499966 L53.855692022527094 55.797202731299990 L41.345735696127079 55.797202731299990 z" />
<glyph unicode="z" horiz-adv-x="53.406390128034317" d="M32.461349718202406 55.784693498499998 L5.000000000002416 55.784693498500019 L5.000000000002416 44.908911431900037 L26.479669581502463 44.908911431900037 L32.461349718202456 55.784693498500019 zM50.406390128002407 55.784693498499998 L41.977659026402449 55.784693498500019 L36.267873441502417 55.784693498500019 L5.000000000002416 0.046310407200053 L9.894101930002449 0.046310407200053 L18.866622134902428 0.046310407200053 L50.406390128002414 55.784693498500019 zM22.401251306502409 0.046310407200000 L48.503128266402456 0.046310407200053 L48.503128266402456 10.922092473800035 L28.654825994802451 10.922092473800035 L22.401251306502360 0.046310407200053 z" />
<glyph unicode="" horiz-adv-x="56" d="M25.641232104600000 10.171763753200000 L46.855516300999966 10.171763753200025 L46.855516300999966 0.049915737999982 L7.893334214800007 0.049915737999982 L7.893334214800007 10.171763753200025 L13.716863209899998 10.171763753200025 L13.716863209899998 20.848233577600013 L7.616023310299965 20.848233577600013 L7.616023310299965 30.415459783799975 L13.716863209899998 30.415459783799975 L13.716863209899998 38.318820562800056 C13.716863209899998 44.558315914699961 15.380728637099992 49.133945839399985 18.569804039199994 52.045710336900015 C21.897534893500051 54.957474834499976 26.057198461400048 56.344029357099998 31.326105647400027 56.344029357099998 C38.258878260600000 56.344029357099998 43.666440898899964 53.154953955099984 47.271482657799993 46.638147698699981 L38.813500069700012 39.705375085500009 C37.981567356099958 41.646551417100000 36.872323737999977 43.033105939799952 35.624424667600010 44.142349557900047 C34.376525597299974 45.251593176000029 32.989971074600021 45.806214985100041 31.464761099700013 45.806214985100041 C29.939551124800005 45.806214985100041 28.552996602199983 45.251593176000029 27.443752984100001 44.142349557900047 C26.195853913700034 43.033105939799952 25.641232104600022 41.230585060400017 25.641232104600022 38.734786919599969 L25.641232104600022 30.554115236000030 L25.641232104600022 30.415459783799975 L25.641232104600022 20.709578125300027 L25.641232104600022 10.171763753200025 zM28.691652054399999 30.415459783799999 L37.565600999300045 30.415459783799975 L37.565600999300045 20.848233577600013 L28.691652054400038 20.848233577600013 L28.691652054400038 30.415459783799975 z" />
<glyph unicode="" horiz-adv-x="34.369619775200007" d="M3.000000000000000 18.759861669599999 L3.000000000000028 29.343346767100002 L31.369619775200050 29.343346767100002 L31.369619775200050 18.759861669600014 L3.000000000000028 18.759861669600014 z" />
<glyph unicode="" horiz-adv-x="34.369619775200007" d="M3.000000000000000 18.759861669599999 L3.000000000000028 29.343346767100002 L31.369619775200050 29.343346767100002 L31.369619775200050 18.759861669600014 L3.000000000000028 18.759861669600014 z" />
<glyph unicode="" horiz-adv-x="46.665348949729982" d="M-21.846116563978562 -108.316397431300004 L-21.846116563978562 -108.316397431299947 L-21.846116563978562 -108.316397431299947 L-21.846116563978562 -108.316397431299947 zM3.000000000021437 18.738726774100002 L3.000000000021437 29.320535675100018 L43.665348949721484 29.320535675100018 L43.665348949721484 18.738726774099973 L3.000000000021437 18.738726774099973 z" />
<glyph unicode="" horiz-adv-x="59.217028304223035" d="M-18.973278457441403 -146.816397431300004 L-18.973278457441381 -146.816397431299947 L-18.973278457441381 -146.816397431299947 L-18.973278457441381 -146.816397431299947 zM2.999999999958597 18.865377790099998 L2.999999999958561 29.448309555099968 L56.217028304258577 29.448309555099968 L56.217028304258577 18.837889655599952 L2.999999999958561 18.837889655599952 L2.999999999958561 18.865377790099956 z" />
<glyph unicode="" horiz-adv-x="20.204487179487206" d="M-7.779289940828402 35.083602568700002 L-7.779289940828356 35.083602568700030 L-7.779289940828356 35.083602568700030 L-7.779289940828356 35.083602568700030 zM6.551121794871598 45.247249018399998 C4.912142504971577 46.339901878299997 3.819489644971647 47.978881168300006 3.819489644971647 50.164186888199993 C3.819489644971647 52.349492608099979 4.365816074971555 53.988471898099988 5.731632149871622 55.081124757999987 C7.097448224871620 56.446940832999985 8.736427514771641 56.993267263000007 10.648570019771547 56.993267263000007 C12.560712524671636 56.993267263000007 13.926528599571590 56.446940832999985 15.292344674571588 55.354287972999998 C16.658160749471655 54.261635113099999 17.204487179471563 52.622655823099990 17.204487179471563 50.710513318200015 C17.204487179471563 48.798370813299982 16.658160749471655 46.886228308300019 15.565507889571656 45.247249018399998 L9.555917159771617 36.779189353699962 L2.999999999971557 36.779189353699962 L6.551121794871598 45.247249018399998 z" />
<glyph unicode="" horiz-adv-x="34.96730587823977" d="M10.364497041420119 35.083602568700002 L10.364497041420098 35.083602568700030 L10.364497041420098 35.083602568700030 L10.364497041420098 35.083602568700030 zM31.967305878220120 36.625726545399999 L25.408670585020079 36.625726545399971 L19.396588232920156 45.097297132399945 C18.303482350720149 46.736955955699955 17.756929409620145 48.649891249599989 17.756929409620145 50.562826543399979 C17.756929409620145 52.475761837300013 18.303482350720149 54.115420660499979 19.669864703520123 55.208526542699985 C21.036247056220166 56.301632424899992 22.402629409020140 56.848185365999996 24.315564702820073 56.848185365999996 C26.228499996720164 56.848185365999996 27.868158820020174 56.301632424899992 29.234541172720103 54.935250072200006 C30.600923525520077 53.842144189999999 31.147476466620081 52.202485366699989 31.147476466620081 50.016273602299975 C31.147476466620081 47.830061837900018 30.054370584420074 46.190403014599951 28.414711761120177 45.097297132399945 L31.967305878220120 36.625726545399971 zM17.210376468620119 36.625726545399999 L10.651741175420145 36.625726545399971 L4.639658823320108 45.097297132399945 C3.546552941120101 46.736955955699955 3.000000000020098 48.649891249599989 3.000000000020098 50.562826543399979 C3.000000000020098 52.475761837300013 3.546552941120101 54.115420660499979 4.912935293820144 55.208526542699985 C6.006041176020151 56.301632424899992 7.645699999320161 56.848185365999996 9.558635293220139 56.848185365999996 C11.471570587020071 56.848185365999996 13.111229410320082 56.301632424899992 14.477611763120169 54.935250072200006 C15.843994115820099 53.842144189999999 16.390547056920102 52.202485366699989 16.390547056920102 50.016273602299975 C16.390547056920102 47.830061837900018 15.297441174720095 46.190403014599951 13.657782351420085 45.097297132399945 L17.210376468620073 36.625726545399971 z" />
<glyph unicode="" horiz-adv-x="34.967305878200001" d="M6.552594117141403 44.517145910399996 C4.912935293841418 45.610251792600025 3.819829411641411 47.249910615900035 3.819829411641411 49.436122380299992 C3.819829411641411 51.622334144700005 4.366382352741415 53.261992968000015 5.732764705541388 54.355098850200022 C7.099147058241432 55.721481202900009 8.738805881541442 56.268034144000012 10.651741175441419 56.268034144000012 C12.564676469241352 56.268034144000012 13.931058822041440 55.721481202900009 15.297441174741369 54.628375320700002 C16.663823527541457 53.535269438499995 17.210376468641346 51.895610615300029 17.210376468641346 49.982675321399995 C17.210376468641346 48.069740027600005 16.663823527541457 46.156804733700028 15.570717645341450 44.517145910400018 L9.558635293241412 36.045575323400044 L3.000000000041371 36.045575323400044 L6.552594117141428 44.517145910400018 zM21.309523526841403 44.517145910399996 C19.669864703541396 45.610251792600025 18.576758821341389 47.249910615900035 18.576758821341389 49.436122380299992 C18.576758821341389 51.622334144700005 19.123311762441393 53.261992968000015 20.489694115141436 54.355098850200022 C21.856076467941410 55.721481202900009 23.495735291241420 56.268034144000012 25.408670585041353 56.268034144000012 C27.321605878941444 56.268034144000012 28.961264702241454 55.721481202900009 30.054370584441347 54.628375320700002 C31.420752937141391 53.535269438499995 31.967305878241394 51.895610615300029 31.967305878241394 49.982675321399995 C31.967305878241394 48.069740027600005 31.420752937141391 46.156804733700028 30.327647054941384 44.517145910400018 L24.315564702841346 36.045575323400044 L17.756929409641419 36.045575323400044 L21.309523526841406 44.517145910400018 z" />
</font>
</defs>
</svg>
